<svg xmlns="http://www.w3.org/2000/svg" width="297.825" height="87.969" viewBox="0 0 297.825 87.969"><defs><style>.a{fill:#1f3261;}.b{fill:#203061;}.c{fill:#b72027;}.d{fill:#faec26;}.e{fill:#f7fbff;}.f{fill:#fff;}</style></defs><g transform="translate(-0.335 -0.451)"><g transform="translate(110.557 15.129)"><path class="a" d="M105.541,34.761l-2.052-5.034H94l-2.054,5.034H86.912l9.62-22.605h4.553l9.62,22.605Zm-6.8-16.674-2.983,7.278h5.965Z" transform="translate(-86.912 -11.932)"/><path class="a" d="M108.319,34.727V12.282h4.938V30.27h11.189v4.457Z" transform="translate(-81.066 -11.898)"/><path class="a" d="M141.026,34.761l-2.052-5.034h-9.49l-2.052,5.034H122.4l9.618-22.605h4.553l9.62,22.605Zm-6.8-16.674-2.982,7.278h5.963Z" transform="translate(-77.22 -11.932)"/><path class="a" d="M160.29,34.151a13.546,13.546,0,0,1-5.467,1.043,12.8,12.8,0,0,1-4.793-.866,11.043,11.043,0,0,1-3.719-2.4,10.852,10.852,0,0,1-2.421-3.655,12.087,12.087,0,0,1-.866-4.618v-.064a11.48,11.48,0,0,1,7.054-10.694,11.929,11.929,0,0,1,4.713-.913,16.562,16.562,0,0,1,2.741.208,13.116,13.116,0,0,1,2.293.593,10.618,10.618,0,0,1,1.987.962,14.652,14.652,0,0,1,1.8,1.315l-3.11,3.751a12.764,12.764,0,0,0-1.283-.962,8.437,8.437,0,0,0-1.33-.705,7.862,7.862,0,0,0-1.491-.448,8.99,8.99,0,0,0-1.763-.16,5.742,5.742,0,0,0-2.517.563,6.8,6.8,0,0,0-2.052,1.51,6.943,6.943,0,0,0-1.379,2.218,7.391,7.391,0,0,0-.5,2.716V23.6a7.912,7.912,0,0,0,.5,2.844,6.781,6.781,0,0,0,1.411,2.266,6.423,6.423,0,0,0,2.149,1.495,6.866,6.866,0,0,0,2.741.53,7.774,7.774,0,0,0,4.649-1.356v-3.23h-4.97V21.887h9.747v9.747A16.368,16.368,0,0,1,160.29,34.151Z" transform="translate(-71.587 -11.98)"/><path class="a" d="M180.668,34.761l-2.052-5.034h-9.491l-2.052,5.034h-5.034l9.62-22.605h4.553l9.62,22.605Zm-6.8-16.674-2.982,7.278h5.965Z" transform="translate(-66.394 -11.932)"/><path class="a" d="M200.5,23.536A6.992,6.992,0,0,1,198.563,26a8.381,8.381,0,0,1-2.885,1.491,12.2,12.2,0,0,1-3.542.5h-3.753v6.733h-4.937V12.282h9.169a10.777,10.777,0,0,1,3.608.561,7.651,7.651,0,0,1,2.694,1.586,6.954,6.954,0,0,1,1.7,2.453,8.165,8.165,0,0,1,.592,3.159v.064A7.875,7.875,0,0,1,200.5,23.536Zm-4.3-3.4a3.064,3.064,0,0,0-1.074-2.533,4.55,4.55,0,0,0-2.935-.864h-3.815V23.6H192.3a4.014,4.014,0,0,0,2.885-.978,3.212,3.212,0,0,0,1.026-2.421Z" transform="translate(-60.548 -11.898)"/><path class="a" d="M217.327,23.536A6.985,6.985,0,0,1,215.388,26,8.41,8.41,0,0,1,212.5,27.5a12.21,12.21,0,0,1-3.543.5h-3.752v6.733H200.27V12.282h9.17a10.78,10.78,0,0,1,3.607.561,7.674,7.674,0,0,1,2.694,1.586,6.951,6.951,0,0,1,1.7,2.453,8.165,8.165,0,0,1,.595,3.159v.064A7.876,7.876,0,0,1,217.327,23.536Zm-4.3-3.4a3.064,3.064,0,0,0-1.074-2.533,4.545,4.545,0,0,0-2.932-.864h-3.817V23.6h3.912A4.01,4.01,0,0,0,212,22.622,3.212,3.212,0,0,0,213.03,20.2Z" transform="translate(-55.953 -11.898)"/><path class="a" d="M234.211,34.761l-2.052-5.034h-9.491l-2.052,5.034h-5.034l9.62-22.605h4.553l9.62,22.605Zm-6.8-16.674-2.983,7.278H230.4Z" transform="translate(-51.771 -11.932)"/><path class="a" d="M105.726,53.548a11.774,11.774,0,0,1-.625,4.02,7.8,7.8,0,0,1-1.772,2.887A7.3,7.3,0,0,1,100.59,62.2a11.133,11.133,0,0,1-7.089,0,7.4,7.4,0,0,1-2.738-1.728,7.732,7.732,0,0,1-1.772-2.844,11.252,11.252,0,0,1-.625-3.9V41.606h2.353V53.578A7.4,7.4,0,0,0,92.4,58.789a6.96,6.96,0,0,0,9.276.089,7.065,7.065,0,0,0,1.7-5.151V41.606h2.353Z" transform="translate(-86.515 -3.889)"/><path class="a" d="M121.712,41.606H124V62.451h-1.877L108.669,45.359V62.451h-2.293V41.606h2.2l13.132,16.706Z" transform="translate(-81.596 -3.889)"/><path class="a" d="M127.369,41.606V62.451h-2.351V41.606Z" transform="translate(-76.505 -3.889)"/><path class="a" d="M147.736,41.606h2.531L141.3,62.6H139.22l-8.964-20.995h2.621l7.415,17.957Z" transform="translate(-75.074 -3.889)"/><path class="a" d="M164.27,43.751H151.555v7.117h11.374v2.144H151.555v7.295h12.862v2.144H149.2V41.606H164.27Z" transform="translate(-69.9 -3.889)"/><path class="a" d="M179.226,62.451l-6.046-8.1h-5.954v8.1h-2.354V41.606h8.964a10.149,10.149,0,0,1,3.111.448,7,7,0,0,1,2.368,1.265,5.654,5.654,0,0,1,1.518,1.966,5.95,5.95,0,0,1,.536,2.549,6.177,6.177,0,0,1-.416,2.337,5.322,5.322,0,0,1-1.176,1.787,6.518,6.518,0,0,1-1.8,1.267,8.438,8.438,0,0,1-2.262.715l6.4,8.509Zm-1.613-17.579a6.285,6.285,0,0,0-3.94-1.09h-6.447v8.485h6.418a7.4,7.4,0,0,0,2.149-.3,5.263,5.263,0,0,0,1.7-.853,3.873,3.873,0,0,0,1.119-1.36,4.019,4.019,0,0,0,.4-1.823A3.655,3.655,0,0,0,177.613,44.872Z" transform="translate(-65.62 -3.889)"/><path class="a" d="M184.125,48.2a2.666,2.666,0,0,0,.863,1.09,6.3,6.3,0,0,0,1.728.9,20.722,20.722,0,0,0,2.829.761,12.259,12.259,0,0,1,5.137,2.145,4.659,4.659,0,0,1,1.651,3.789,5.511,5.511,0,0,1-1.987,4.325A6.589,6.589,0,0,1,192.1,62.4a9.425,9.425,0,0,1-2.858.416,12.465,12.465,0,0,1-4.57-.807,12.925,12.925,0,0,1-3.945-2.5l1.459-1.726a12.271,12.271,0,0,0,3.3,2.218,9.5,9.5,0,0,0,3.841.729,5.364,5.364,0,0,0,3.38-.984,3.127,3.127,0,0,0,1.266-2.593,3.469,3.469,0,0,0-.239-1.328,2.67,2.67,0,0,0-.835-1.059,5.92,5.92,0,0,0-1.658-.864,21.23,21.23,0,0,0-2.7-.746,21.4,21.4,0,0,1-3.119-.894,7.766,7.766,0,0,1-2.195-1.223,4.5,4.5,0,0,1-1.283-1.672,5.628,5.628,0,0,1-.418-2.265,5.185,5.185,0,0,1,.507-2.3,5.291,5.291,0,0,1,1.43-1.8,6.952,6.952,0,0,1,2.173-1.193,8.313,8.313,0,0,1,2.738-.433,11.558,11.558,0,0,1,4.006.631,12.122,12.122,0,0,1,3.319,1.9l-1.369,1.815a10.171,10.171,0,0,0-2.935-1.725,8.9,8.9,0,0,0-3.081-.537,5.842,5.842,0,0,0-1.831.269,4.617,4.617,0,0,0-1.4.715,3.114,3.114,0,0,0-.894,1.075,2.974,2.974,0,0,0-.312,1.342A3.6,3.6,0,0,0,184.125,48.2Z" transform="translate(-61.289 -3.952)"/><path class="a" d="M199.269,41.606V62.451h-2.353V41.606Z" transform="translate(-56.869 -3.889)"/><path class="a" d="M211.739,62.451h-2.351V43.782h-7V41.606h16.348v2.176h-7Z" transform="translate(-55.374 -3.889)"/><path class="a" d="M228.049,62.451H225.7V54.2l-8.666-12.6h2.859L226.9,52.029l7.072-10.423h2.74l-8.665,12.567Z" transform="translate(-51.375 -3.889)"/></g><g transform="translate(0.335 0.451)"><g transform="translate(21.761 22.796)"><path class="b" d="M17.554,25.388s-.227-.68,2.722-2.949a17.922,17.922,0,0,0,4.083-4.083H65.865a60.5,60.5,0,0,0,4.309,4.536c1.361,1.134,2.949,2.042,2.949,2.5S73.35,45.8,72.443,49.2s-4.309,20.866-26.991,25.63C20.731,69.39,18.009,47.389,18.009,47.389S17.1,34.007,17.554,25.388Z" transform="translate(-17.427 -18.357)"/></g><g transform="translate(29.436 8.961)"><path class="b" d="M53.734,11.005c-.227,1.134-3.4,3.175-4.309,1.361.908,0,3.236-1.027,2.269-2.722-.908-1.588-3.4,0-4.764,2.042-.453.68-1.588.906-2.041.227s.908-1.134.908-1.814a4.592,4.592,0,0,0-1.361-2.5,2.837,2.837,0,0,0-1.588,0,4.584,4.584,0,0,0-1.361,2.5c0,.68,1.361,1.134.906,1.814s-1.588.453-2.041-.227C38.992,9.644,36.5,8.057,35.59,9.644c-.969,1.695,1.361,2.722,2.267,2.722-.906,1.814-4.082-.227-4.309-1.361-7.257.228-10.092,3.516-10.092,3.516H63.828S60.992,11.233,53.734,11.005Z" transform="translate(-23.456 -7.49)"/></g><g transform="translate(26.202 17.388)"><path class="c" d="M22.1,14.187h.364l1.15,3.831H23.2l-.368-1.3H21.661l-.372,1.3h-.373Zm-.363,2.229h1.015l-.5-1.749Z" transform="translate(-20.916 -14.088)"/><path class="c" d="M25.275,18.018H23.34V14.187h.376V17.68h1.56Z" transform="translate(-20.254 -14.088)"/><path class="c" d="M26.152,14.187h.364l1.15,3.831h-.415l-.369-1.3H25.713l-.372,1.3h-.373Zm-.362,2.229H26.8l-.5-1.749Z" transform="translate(-19.809 -14.088)"/><path class="c" d="M28.807,17.748a1.927,1.927,0,0,0,.707-.117V16.514h-.485V16.2h.861v1.6a2.18,2.18,0,0,1-1.115.308,1.173,1.173,0,0,1-1.055-.575,2.644,2.644,0,0,1-.36-1.434,2.424,2.424,0,0,1,.393-1.418,1.229,1.229,0,0,1,1.064-.564,1.171,1.171,0,0,1,.974.428l-.243.278a.921.921,0,0,0-1.5.065,1.971,1.971,0,0,0-.3,1.148,2.445,2.445,0,0,0,.28,1.23A.857.857,0,0,0,28.807,17.748Z" transform="translate(-19.157 -14.109)"/><path class="c" d="M30.725,14.187h.364l1.15,3.831h-.415l-.369-1.3H30.286l-.372,1.3h-.373Zm-.363,2.229h1.015l-.5-1.749Z" transform="translate(-18.56 -14.088)"/><path class="c" d="M32.341,16.407v1.61h-.376V14.187h.94a1.01,1.01,0,0,1,1.113,1.11,1.057,1.057,0,0,1-.336.775,1.313,1.313,0,0,1-.965.335Zm0-.318h.365a.973.973,0,0,0,.673-.223.881.881,0,0,0,.047-1.176.958.958,0,0,0-.657-.185h-.429Z" transform="translate(-17.898 -14.088)"/><path class="c" d="M34.353,16.407v1.61h-.376V14.187h.938a1.117,1.117,0,0,1,.824.29,1.105,1.105,0,0,1,.29.82,1.053,1.053,0,0,1-.337.775,1.31,1.31,0,0,1-.964.335Zm0-.318h.364a.971.971,0,0,0,.673-.223.883.883,0,0,0,.048-1.176.959.959,0,0,0-.658-.185h-.428Z" transform="translate(-17.349 -14.088)"/><path class="c" d="M36.737,14.187H37.1l1.148,3.831h-.415l-.369-1.3H36.3l-.37,1.3h-.374Zm-.363,2.229h1.015l-.5-1.749Z" transform="translate(-16.919 -14.088)"/><path class="c" d="M39.408,14.187v2.33a1.379,1.379,0,0,0,.238.984.969.969,0,0,0,.666.211,1.03,1.03,0,0,0,.7-.211,1.37,1.37,0,0,0,.236-.973V14.187h.374V16.5a1.725,1.725,0,0,1-.341,1.264,1.418,1.418,0,0,1-.994.313,1.265,1.265,0,0,1-.948-.32,1.846,1.846,0,0,1-.308-1.25V14.187Z" transform="translate(-15.968 -14.088)"/><path class="c" d="M41.963,14.872v3.146h-.374V14.187h.376l1.72,3.161V14.187h.376v3.831H43.7Z" transform="translate(-15.271 -14.088)"/><path class="c" d="M44.051,18.018V14.187h.376v3.831Z" transform="translate(-14.598 -14.088)"/><path class="c" d="M46.854,14.187h.4l-1.136,3.831h-.363l-1.1-3.831h.407l.89,3.231Z" transform="translate(-14.432 -14.088)"/><path class="c" d="M48.859,14.524H47.386v1.3h1.175v.321H47.386v1.53h1.539v.337H47.01V14.187h1.849Z" transform="translate(-13.789 -14.088)"/><path class="c" d="M49.307,18.018h-.376V14.187h.938a1.1,1.1,0,0,1,.831.29,1.078,1.078,0,0,1,.28.786,1.051,1.051,0,0,1-.218.653,1.04,1.04,0,0,1-.5.378l.968,1.724h-.446l-.892-1.642c-.019,0-.215.006-.586.009Zm0-1.948h.36a.982.982,0,0,0,.686-.223.745.745,0,0,0,.242-.572.735.735,0,0,0-.2-.579,1,1,0,0,0-.666-.178h-.42Z" transform="translate(-13.265 -14.088)"/><path class="c" d="M51.187,17.261a1.632,1.632,0,0,0,.384.34.941.941,0,0,0,.523.146.8.8,0,0,0,.544-.176.631.631,0,0,0,.2-.505.591.591,0,0,0-.187-.48,2.139,2.139,0,0,0-.558-.308l-.19-.088a1.952,1.952,0,0,1-.667-.42.937.937,0,0,1-.267-.7.873.873,0,0,1,.308-.7,1.159,1.159,0,0,1,.774-.26,1.337,1.337,0,0,1,.6.118,1.441,1.441,0,0,1,.437.341l-.218.275a1.849,1.849,0,0,0-.335-.265.885.885,0,0,0-.475-.118.793.793,0,0,0-.5.159.5.5,0,0,0-.2.409.566.566,0,0,0,.227.477,2.181,2.181,0,0,0,.465.272l.327.151a1.632,1.632,0,0,1,.686.451,1.031,1.031,0,0,1,.18.631,1,1,0,0,1-.331.8,1.212,1.212,0,0,1-.815.284,1.985,1.985,0,0,1-.362-.031,1.369,1.369,0,0,1-.309-.1,1.3,1.3,0,0,1-.272-.169,1.74,1.74,0,0,1-.25-.246Z" transform="translate(-12.727 -14.109)"/><path class="c" d="M53.125,18.018V14.187H53.5v3.831Z" transform="translate(-12.119 -14.088)"/><path class="c" d="M56.259,14.54H55.184v3.478h-.376V14.54H53.736v-.353h2.523Z" transform="translate(-11.953 -14.088)"/><path class="c" d="M56.872,18.018V16.27l-1.017-2.083h.407l.8,1.721.807-1.721h.406l-1.027,2.041v1.79Z" transform="translate(-11.374 -14.088)"/></g><g transform="translate(24.714 24.431)"><g transform="translate(16.496 42.366)"><path class="d" d="M40.172,57.908s-3.63-1.814-6.8-1.36c-.68,0-.965-.274-.227-1.134a14.982,14.982,0,0,1,2.722-2.5,4.524,4.524,0,0,1,1.814.453c1.092.546,2.722,1.361,2.722,2.042v2.041C40.4,57.682,40.4,57.908,40.172,57.908Z" transform="translate(-32.705 -52.919)"/></g><g transform="translate(15.052 46.681)"><path class="d" d="M32.68,56.917a4.572,4.572,0,0,1-1.044,2.089c-.349.581.812.928.812.928s6.5,0,7.311-.232c.782-.223.7-.812.7-.812s0-.348-.116-.465c-1.16-1.393-4.875-1.972-5.687-2.088-.947-.136-1.857.232-1.973.579" transform="translate(-31.571 -56.308)"/></g><g transform="translate(28.183 50.772)"><path class="d" d="M45.485,59.521H42.236a.528.528,0,0,0-.116.929,2.1,2.1,0,0,0,1.044.7,4.86,4.86,0,0,0,2.438-.929c.348-.348.116-.7-.117-.7" transform="translate(-41.885 -59.521)"/></g><g transform="translate(25.614 42.366)"><path class="d" d="M40.094,57.908s3.628-1.814,6.8-1.36c.681,0,.965-.274.228-1.134a14.982,14.982,0,0,0-2.722-2.5,4.528,4.528,0,0,0-1.815.453c-1.092.546-2.721,1.361-2.721,2.042v2.041C39.867,57.682,39.867,57.908,40.094,57.908Z" transform="translate(-39.867 -52.919)"/></g><g transform="translate(25.862 46.681)"><path class="d" d="M47.841,56.917a4.569,4.569,0,0,0,1.045,2.089c.348.581-.814.928-.814.928s-6.5,0-7.311-.232c-.78-.223-.7-.812-.7-.812s0-.348.116-.465c1.161-1.393,4.875-1.972,5.687-2.088.948-.136,1.857.232,1.973.579" transform="translate(-40.062 -56.308)"/></g><g transform="translate(17.737 50.772)"><path class="d" d="M33.973,59.521h3.25a.528.528,0,0,1,.116.929,2.1,2.1,0,0,1-1.045.7,4.861,4.861,0,0,1-2.437-.929c-.348-.348-.116-.7.116-.7" transform="translate(-33.68 -59.521)"/></g><g transform="translate(22.966 50.772)"><path class="d" d="M41.2,59.521H38.179s-.7.581-.233.7.928.465.581.929,0,1.16.812,1.509h.7c.812-.349,1.161-1.045.812-1.509s.116-.814.581-.929S41.2,59.521,41.2,59.521Z" transform="translate(-37.787 -59.521)"/></g><path class="d" d="M36.142,62.521c-1.393-.465-5.049,2.5-3.019,4.294.313.278.465-.348.7-.463.465-.233,1.668,2.047-.812,1.972-1.915-.057-3.366-2.9-2.9-4.875a1.481,1.481,0,0,1,2.205-1.16c.29.173,1.537.1.7-.929-.522-.638-1.509,0-2.67.117s-3.351.206-3.017-.929a1.765,1.765,0,0,1,3.017-.463c.233.348.814.232.814-.117s-.581-1.276-1.973-1.16-3.6.7-4.41-.465.7-1.509,1.393-1.509,1.392.928,1.74.7.507-1.254-1.277-1.509a21.677,21.677,0,0,1-2.9-.465c-.174-.057-1.393-.581-.928-1.509a1.507,1.507,0,0,1,2.321.465c.581.928,1.262.289,1.161-.116a2.815,2.815,0,0,0-2.089-1.51c-1.161-.232-3.366-1.393-2.67-2.321.232-.232.928-.465,1.624.349s1.277.232.929-.581c-.233-.581-1.045-.465-2.206-1.277s-1.972-2.089-1.509-2.67c.233-.232,1.335-.406,1.857,1.393.116.465.7.232.812-.116s.174-.987-1.277-2.089c-1.665-1.265-2.321-2.089-1.856-2.67s1.276.233,1.74,1.161c.116.348,1.218.29.7-1.045s-2.205-1.16-2.437-3.249c.116-1.742,1.509-.928,1.856.928,0,.386.819,1.013,1.045-.232.232-1.277-1.277-2.205-1.277-2.205s-1.915-1.567-1.045-2.9c.639-.754,1.335.174,1.916,1.916.166.5,1.566.29.87-1.683-.232-.581-1.566-1.451-1.276-3.366.057-.522,1.566-.638,1.856,2.089-.057.406,1.567-.059.812-1.509-.7-1.161-1.068-2.358-.463-3.366.522-.871,1.393.581,1.277,1.509s1.45.639,1.16-1.044c-.2-1.145-.871-2.96.465-3.6.638-.29.871.638.463,1.624s.929.465,1.22.174c.463-.465,1.509-1.973.057-4.237-1.683-2.031-3.423-.754-2.786-.116.354.353.49,0,.639-.057.581-.233.7,1.393-.29,1.45-1.659.1-1.6-1.7-1.161-2.437a3.538,3.538,0,0,1,3.134-1.393c1.45.173,2.437,1.509,1.74,3.6a.93.93,0,0,0,.928,1.16c.581,0,.763-.373.814-1.624.057-1.451,2.089-1.509,1.624-.7-.174.29-.349.232-.465.465s.383.717,1.045.232c.87-.638,1.044-2.321,3.945-2.089s4.121.522,4.063-1.624c-.174-.174-.348-.116-.581.232a.691.691,0,0,1-1.16-.581c.116-.812,1.105-.806,1.509-.7.638.174,1.915,1.451.116,3.019-2.5,1.334-3.888.406-7.835,2.379a20.117,20.117,0,0,0-5.454,3.83,25.528,25.528,0,0,0-4.527,6.964c-.581,1.856-1.857,6.731-.581,10.909s2.786,7.892,6.616,10.678a21.761,21.761,0,0,0,6.5,3.6c.7.232,1.218,1.1.348,1.509A1.886,1.886,0,0,1,36.142,62.521Z" transform="translate(-19.748 -19.641)"/><g transform="translate(26.694)"><path class="d" d="M47.441,62.521c1.393-.465,5.049,2.5,3.017,4.294-.313.278-.463-.348-.7-.463-.463-.233-1.668,2.047.812,1.972,1.916-.057,3.366-2.9,2.9-4.875a1.481,1.481,0,0,0-2.205-1.16c-.29.173-1.535.1-.7-.929.523-.638,1.509,0,2.67.117s3.352.206,3.017-.929a1.765,1.765,0,0,0-3.017-.463c-.232.348-.812.232-.812-.117s.581-1.276,1.973-1.16,3.6.7,4.41-.465-.7-1.509-1.393-1.509-1.393.928-1.74.7-.508-1.254,1.276-1.509a21.641,21.641,0,0,0,2.9-.465c.174-.057,1.393-.581.929-1.509a1.507,1.507,0,0,0-2.321.465c-.581.928-1.263.289-1.161-.116a2.812,2.812,0,0,1,2.089-1.51c1.16-.232,3.366-1.393,2.67-2.321-.233-.232-.929-.465-1.626.349s-1.276.232-.928-.581c.232-.581,1.044-.465,2.205-1.277s1.973-2.089,1.509-2.67c-.232-.232-1.334-.406-1.856,1.393-.117.465-.7.232-.814-.116s-.173-.987,1.277-2.089c1.667-1.265,2.322-2.089,1.857-2.67s-1.277.233-1.742,1.161c-.116.348-1.218.29-.7-1.045s2.206-1.16,2.438-3.249c-.116-1.742-1.509-.928-1.857.928,0,.386-.817,1.013-1.044-.232-.233-1.277,1.277-2.205,1.277-2.205s1.915-1.567,1.044-2.9c-.638-.754-1.334.174-1.915,1.916-.167.5-1.567.29-.871-1.683.232-.581,1.567-1.451,1.277-3.366-.059-.522-1.567-.638-1.857,2.089.059.406-1.566-.059-.812-1.509.7-1.161,1.069-2.358.465-3.366-.522-.871-1.393.581-1.277,1.509s-1.451.639-1.161-1.044c.2-1.145.871-2.96-.463-3.6-.639-.29-.871.638-.465,1.624s-.928.465-1.218.174c-.465-.465-1.509-1.973-.059-4.237,1.683-2.031,3.425-.754,2.786-.116-.353.353-.489,0-.638-.057-.581-.233-.7,1.393.29,1.45,1.659.1,1.6-1.7,1.16-2.437a3.535,3.535,0,0,0-3.133-1.393c-1.451.173-2.438,1.509-1.742,3.6a.93.93,0,0,1-.928,1.16c-.581,0-.763-.373-.812-1.624-.059-1.451-2.089-1.509-1.624-.7.173.29.348.232.463.465s-.382.717-1.044.232c-.871-.638-1.045-2.321-3.947-2.089s-4.12.522-4.061-1.624c.173-.174.348-.116.579.232a.692.692,0,0,0,1.161-.581c-.116-.812-1.105-.806-1.509-.7-.639.174-1.915,1.451-.116,3.019,2.5,1.334,3.888.406,7.833,2.379a20.122,20.122,0,0,1,5.455,3.83c1.509,1.624,3.947,5.106,4.526,6.964s1.857,6.731.581,10.909-2.786,7.892-6.615,10.678a21.778,21.778,0,0,1-6.5,3.6c-.7.232-1.22,1.1-.349,1.509A1.891,1.891,0,0,0,47.441,62.521Z" transform="translate(-40.715 -19.641)"/></g></g><g transform="translate(29.063 28.794)"><ellipse class="e" cx="20.558" cy="18.871" rx="20.558" ry="18.871"/></g><g transform="translate(29.951 29.619)"><path class="c" d="M63.2,41.584c0,9.932-7.5,17.984-19.67,17.984-11.2,0-19.67-8.052-19.67-17.984s7.77-17.868,19.67-17.868C55.656,23.716,63.2,31.651,63.2,41.584Z" transform="translate(-23.861 -23.716)"/></g><g transform="translate(30.835 30.42)"><path class="b" d="M62.128,41.58c0,9.519-7.229,17.12-18.787,17.12-11.458,0-18.786-7.6-18.786-17.12s6.8-17.235,18.786-17.235C54.581,24.345,62.128,32.061,62.128,41.58Z" transform="translate(-24.555 -24.345)"/></g><g transform="translate(31.925 31.546)"><path class="c" d="M60.8,41.089c0,8.888-6.737,16.092-17.7,16.092-10.863,0-17.7-7.2-17.7-16.092s6.33-15.859,17.7-15.859C53.764,25.23,60.8,32.2,60.8,41.089Z" transform="translate(-25.411 -25.23)"/></g><g transform="translate(34.301 32.956)"><g transform="translate(13.543 6.036)"><path class="e" d="M39.344,38.389s-2.169-.139-1.161-3.6a25.951,25.951,0,0,1,1.277-3.714,14.905,14.905,0,0,1,1.277,3.945C41.08,36.512,40.969,38.389,39.344,38.389Z" transform="translate(-37.916 -31.078)"/></g><g transform="translate(12.11)"><path class="e" d="M39.884,26.337c-1.74.233-3.482,4.294-3.017,6.152s1.16.812,1.624-.465c.928-2.668,1.393-2.784,1.393-2.784s.465.116,1.393,2.784c.465,1.277,1.161,2.322,1.624.465S41.625,26.57,39.884,26.337Z" transform="translate(-36.79 -26.337)"/></g><g transform="translate(8.32 0.824)"><path class="e" d="M36.983,28.249a12.291,12.291,0,0,0-.581,2.205c-.116.233-.348.233-.581.117a12.711,12.711,0,0,1-1.74-.929c-.233-.232-.465-.7,0-1.509a10.133,10.133,0,0,1,.581-1.044c.232-.233.89-.065,1.509.348C36.867,27.9,36.983,28.249,36.983,28.249Z" transform="translate(-33.813 -26.984)"/></g><g transform="translate(4.443 4.302)"><path class="e" d="M37.466,33.074a30.653,30.653,0,0,0-3.83,2.9c-.232.117-.465.233-1.045-.581a6.513,6.513,0,0,1-1.74-5.57,7.151,7.151,0,0,1,6.732,2.437C37.815,32.61,37.815,32.843,37.466,33.074Z" transform="translate(-30.768 -29.716)"/></g><g transform="translate(0.579 8.23)"><path class="e" d="M30.634,32.812c.518.033,1.045,1.74,1.51,1.973v.7a16.868,16.868,0,0,0-3.366.928c-.116,0-.349-.581-.581-1.044a3.4,3.4,0,0,1-.465-1.393C27.733,33.509,28.778,32.7,30.634,32.812Z" transform="translate(-27.733 -32.801)"/></g><g transform="translate(0 11.839)"><path class="e" d="M33.661,36.217a10.107,10.107,0,0,0,0,4.178c.348.812-.117.928-.7.812a7.706,7.706,0,0,1-5.687-2.9c1.276-1.393,2.205-2.205,6.035-2.67C33.544,35.636,33.777,35.752,33.661,36.217Z" transform="translate(-27.278 -35.636)"/></g><g transform="translate(4.356 18.192)"><path class="e" d="M34.013,40.947a9.035,9.035,0,0,0,3.276,2.611c.926.339.457,1.049.011,1.534a7.416,7.416,0,0,1-6.546,2.76c-.155-2.1-.144-3.6,2.4-7.067A.52.52,0,0,1,34.013,40.947Z" transform="translate(-30.699 -40.626)"/></g><g transform="translate(12.106 21.566)"><path class="e" d="M38.016,43.353a7.157,7.157,0,0,0,3.725-.029c.95-.265,1.248.643,1.206,1.3A6.554,6.554,0,0,1,40.175,51c-1.915-1.554-3.19-2.479-3.388-6.774A.972.972,0,0,1,38.016,43.353Z" transform="translate(-36.787 -43.277)"/></g><g transform="translate(0.92 17.526)"><path class="e" d="M32.187,40.8a5.127,5.127,0,0,1-2.554-.7,4.391,4.391,0,0,0-1.624,3.25,6.693,6.693,0,0,0,2.437.928A8.694,8.694,0,0,1,32.187,41.5Z" transform="translate(-28.001 -40.103)"/></g><g transform="translate(8.355 24.258)"><path class="e" d="M36.395,45.391l.349.232a22.72,22.72,0,0,0,.579,2.554c.233.579,0,.7-.463,1.044a4.167,4.167,0,0,1-2.089.812,6.235,6.235,0,0,1-.929-2.437c0-.581,0-.7.465-.812A6.584,6.584,0,0,0,36.395,45.391Z" transform="translate(-33.841 -45.391)"/></g><g transform="translate(18.777 0.707)"><path class="e" d="M42.027,28.159a12.264,12.264,0,0,1,.579,2.205c.117.233.349.233.581.116a12.711,12.711,0,0,0,1.742-.928c.232-.232.463-.7,0-1.509A11.166,11.166,0,0,0,44.348,27c-.232-.232-.891-.064-1.509.349C42.143,27.811,42.027,28.159,42.027,28.159Z" transform="translate(-42.027 -26.893)"/></g><g transform="translate(18.847 4.186)"><path class="e" d="M42.359,32.984a30.432,30.432,0,0,1,3.83,2.9c.233.116.465.233,1.045-.581a6.51,6.51,0,0,0,1.74-5.571,7.154,7.154,0,0,0-6.731,2.438C42.012,32.519,42.012,32.752,42.359,32.984Z" transform="translate(-42.082 -29.625)"/></g><g transform="translate(25.532 7.434)"><path class="e" d="M48.667,32.237c-.514.076-.892,1.824-1.334,2.094l.059.694a16.854,16.854,0,0,1,3.434.638c.116-.01.3-.609.489-1.091a3.385,3.385,0,0,0,.342-1.427C51.617,32.683,50.507,31.962,48.667,32.237Z" transform="translate(-47.333 -32.176)"/></g><g transform="translate(23.415 11.491)"><path class="e" d="M45.8,35.942a9.151,9.151,0,0,1,0,4.178c-.387.812.129.929.773.812a9,9,0,0,0,6.318-2.9c-1.418-1.393-2.089-2.668-6.7-2.668C45.932,35.363,45.674,35.479,45.8,35.942Z" transform="translate(-45.67 -35.363)"/></g><g transform="translate(19.02 17.96)"><path class="e" d="M46.027,40.764a9.062,9.062,0,0,1-3.276,2.612c-.926.337-.458,1.048-.011,1.534.511.555,2.444,2.533,6.662,2.3.155-2.1.028-3.138-2.522-6.6A.52.52,0,0,0,46.027,40.764Z" transform="translate(-42.218 -40.444)"/></g><g transform="translate(25.74 17.294)"><path class="e" d="M47.5,40.617a5.14,5.14,0,0,0,2.554-.7,4.384,4.384,0,0,1,1.624,3.25,6.707,6.707,0,0,1-2.437.928A8.659,8.659,0,0,0,47.5,41.314Z" transform="translate(-47.496 -39.921)"/></g><g transform="translate(18.918 24.025)"><path class="e" d="M43.157,45.208l-.348.233a22.723,22.723,0,0,1-.581,2.553c-.232.581,0,.7.465,1.045a4.174,4.174,0,0,0,2.089.812,6.268,6.268,0,0,0,.928-2.437c0-.581,0-.7-.465-.814A6.591,6.591,0,0,1,43.157,45.208Z" transform="translate(-42.138 -45.208)"/></g><g transform="translate(7.427 8.893)"><path class="e" d="M44.719,33.6s-1.51-.812-1.161.349a4.827,4.827,0,0,1,1.161.581,5.335,5.335,0,0,1,3.017,4.758c0,2.67-4.178,2.205-4.991,1.626s-1.973-1.626-1.973-1.626S39.611,40.33,38.8,40.911s-4.991,1.044-4.991-1.626a5.335,5.335,0,0,1,3.017-4.758,4.827,4.827,0,0,1,1.161-.581c.348-1.161-1.161-.349-1.161-.349-1.972.929-3.714,2.205-3.714,5.687,0,5.92,7.66,6.036,7.66,6.036s7.66-.116,7.66-6.036C48.433,35.8,46.691,34.528,44.719,33.6ZM40.772,44.393c-1.509,0-4.178-1.045-4.759-1.973a7.905,7.905,0,0,0,4.759-1.509,7.905,7.905,0,0,0,4.759,1.509C44.951,43.348,42.281,44.393,40.772,44.393Z" transform="translate(-33.112 -33.322)"/></g></g><g transform="translate(0 54.776)"><g transform="translate(10.277 3.017)"><path class="b" d="M13.049,45.846S9.1,50.257,8.407,52.231c3.017,4.758,15.088,23.792,40.737,23.792S83.615,57.105,87.1,52.694c-.232-1.74-2.437-5.222-4.643-6.848C79.436,52,68.759,68.827,49.144,68.827,28.485,68.827,17.808,55.711,13.049,45.846Z" transform="translate(-8.407 -45.846)"/></g><path class="c" d="M15.49,43.476H6.55a.891.891,0,0,0-.6.346L.42,51.255c-.143.19-.1.346.088.346H9.449a.888.888,0,0,0,.6-.346l5.527-7.432C15.721,43.633,15.681,43.476,15.49,43.476Z" transform="translate(-0.335 -43.476)"/><g transform="translate(83.913)"><path class="c" d="M66.42,43.476h8.94a.888.888,0,0,1,.6.346l5.527,7.432c.141.19.1.346-.089.346h-8.94a.891.891,0,0,1-.6-.346l-5.527-7.432C66.19,43.633,66.231,43.476,66.42,43.476Z" transform="translate(-66.247 -43.476)"/></g></g><g transform="translate(13.25)"><path class="c" d="M12.314,16.938l4.5,2.424-.309.574-1.357-.731-.41.76a2.486,2.486,0,0,1,.2,3.162,3.028,3.028,0,0,1-.89,1.045,1.181,1.181,0,0,1-1.33.158.847.847,0,0,1-.288-.243.829.829,0,0,1-.141-.326.99.99,0,0,1,0-.377,1.45,1.45,0,0,1,.15-.4l1.539-2.856c-.148-.093-.267-.164-.36-.215a4.175,4.175,0,0,0-.533-.242,2.383,2.383,0,0,0-.5-.126,1.355,1.355,0,0,0-.444.011.863.863,0,0,0-.365.166.523.523,0,0,1,.191,0,1.714,1.714,0,0,1,.216.045c.071.02.134.041.19.061a1.057,1.057,0,0,1,.107.045,1.5,1.5,0,0,1,.423.322,1.136,1.136,0,0,1,.23.374.891.891,0,0,1,.05.39.963.963,0,0,1-.111.369,1.454,1.454,0,0,1-.258.348.85.85,0,0,1-.342.2.963.963,0,0,1-.435.022,1.691,1.691,0,0,1-.542-.2,1.638,1.638,0,0,1-.255-.173,1.466,1.466,0,0,1-.225-.236,1.318,1.318,0,0,1-.171-.29,1.088,1.088,0,0,1-.089-.332,1.292,1.292,0,0,1,.015-.368,1.392,1.392,0,0,1,.146-.4,2.1,2.1,0,0,1,.461-.584,1.532,1.532,0,0,1,.659-.335,2.14,2.14,0,0,1,.87,0,3.813,3.813,0,0,1,1.094.411c.045.024.092.051.139.079l.149.093.342-.637L12,17.513ZM12.2,20.374a.665.665,0,0,0-.163-.057.813.813,0,0,0-.209-.02.621.621,0,0,0-.206.043.291.291,0,0,0-.148.134.414.414,0,0,0-.056.214.437.437,0,0,0,.05.188.559.559,0,0,0,.13.159.917.917,0,0,0,.18.123.935.935,0,0,0,.284.106.523.523,0,0,0,.224-.005.388.388,0,0,0,.167-.087.508.508,0,0,0,.113-.145.425.425,0,0,0,.051-.148.266.266,0,0,0-.023-.157.562.562,0,0,0-.127-.168A1.24,1.24,0,0,0,12.2,20.374Zm2.216.174L12.9,23.356a.261.261,0,0,0-.033.12.3.3,0,0,0,.025.12.361.361,0,0,0,.074.109.48.48,0,0,0,.115.085c.23.125.511.022.838-.307A3.435,3.435,0,0,0,14.5,22.7a2.342,2.342,0,0,0,.326-1.064A1.813,1.813,0,0,0,14.419,20.549Z" transform="translate(-10.743 4.052)"/><path class="c" d="M16.118,19.4l-3.485-2.712.4-.516,3.019,2.35.94-1.207-2.017-1.57a2.391,2.391,0,0,1-.358-.342,1.226,1.226,0,0,1-.236-.419.977.977,0,0,1-.028-.484,1.28,1.28,0,0,1,.27-.545,1.031,1.031,0,0,1,.419-.328,1.459,1.459,0,0,1,.525-.113,2.277,2.277,0,0,1,.584.056,3.785,3.785,0,0,1,.592.183,4.559,4.559,0,0,1,.555.269,4.086,4.086,0,0,1,.471.313l.612.477a1.469,1.469,0,0,1,.369.387.684.684,0,0,1,.107.372.88.88,0,0,1-.107.381,2.892,2.892,0,0,1-.272.411l-.621.8a.742.742,0,0,0,.2.06.772.772,0,0,0,.216,0,.635.635,0,0,0,.2-.055.384.384,0,0,0,.15-.117l.615-.789.465.362-.365.47a.953.953,0,0,0-.171.325,1.356,1.356,0,0,0-.046.337,2.3,2.3,0,0,0,.025.356c.018.122.033.25.047.379s.02.255.022.39a1.932,1.932,0,0,1-.043.418,2.078,2.078,0,0,1-.154.451,2.529,2.529,0,0,1-.307.489,1.006,1.006,0,0,1-.32.278.946.946,0,0,1-.368.111.974.974,0,0,1-.381-.043,1.138,1.138,0,0,1-.355-.188,1.016,1.016,0,0,1-.264-.3.963.963,0,0,1-.1-.732.976.976,0,0,1,.176-.35l.174-.224.47.365a.805.805,0,0,0-.2.425.377.377,0,0,0,.167.322.3.3,0,0,0,.149.059.5.5,0,0,0,.173-.013.6.6,0,0,0,.169-.074.513.513,0,0,0,.139-.122,1.433,1.433,0,0,0,.187-.306,1.276,1.276,0,0,0,.09-.294,1.465,1.465,0,0,0,.023-.286c0-.1-.009-.19-.019-.281s-.018-.162-.029-.243-.019-.163-.024-.244a2,2,0,0,1,0-.247,1.411,1.411,0,0,1,.042-.256.559.559,0,0,1-.21.167.76.76,0,0,1-.279.066,1.21,1.21,0,0,1-.325-.028,1.711,1.711,0,0,1-.353-.122Zm1.277-2.6.624-.8a1.4,1.4,0,0,0,.093-.136.4.4,0,0,0,.059-.164.383.383,0,0,0-.027-.181.481.481,0,0,0-.16-.191l-.6-.469A3.8,3.8,0,0,0,17,14.6a4.455,4.455,0,0,0-.429-.228,3.985,3.985,0,0,0-.444-.172,2.043,2.043,0,0,0-.421-.088,1.006,1.006,0,0,0-.356.025.456.456,0,0,0-.251.162.515.515,0,0,0-.117.262.5.5,0,0,0,.037.247.759.759,0,0,0,.146.225,1.788,1.788,0,0,0,.21.195Z" transform="translate(-10.226 3.116)"/><path class="c" d="M20.751,11.8a1.955,1.955,0,0,1,.373.526,1.307,1.307,0,0,1,.129.535,1.177,1.177,0,0,1-.117.522,1.677,1.677,0,0,1-.364.491l-.409-.423q.556-.539-.045-1.159a.787.787,0,0,0-.288-.2.536.536,0,0,0-.281-.025.794.794,0,0,0-.278.115,1.794,1.794,0,0,0-.271.219l.381.393a2.737,2.737,0,0,1,.378.486,1.41,1.41,0,0,1,.195.525,1.128,1.128,0,0,1-.06.546,1.477,1.477,0,0,1-.387.555,1.011,1.011,0,0,1-.311.206,1.5,1.5,0,0,1-.372.1,1.786,1.786,0,0,1-.4.008,2.01,2.01,0,0,1-.4-.079,1.76,1.76,0,0,1-.365-.158,1.33,1.33,0,0,1-.3-.232,1.539,1.539,0,0,1-.225-.293,1.012,1.012,0,0,1-.123-.318.8.8,0,0,1,.005-.334.88.88,0,0,1,.166-.339l-1.223-1.264,2.1-2.031.409.423-.621.6.754.779.153-.148a1.479,1.479,0,0,1,.42-.288,1.3,1.3,0,0,1,.471-.117,1.178,1.178,0,0,1,.477.079A1.214,1.214,0,0,1,20.751,11.8Zm-2.429.629-.754-.778-.539.521.754.779Zm.409.424-.7.675a.914.914,0,0,0-.134.159.433.433,0,0,0-.07.181.407.407,0,0,0,.029.2.707.707,0,0,0,.158.229.885.885,0,0,0,.311.2,1.367,1.367,0,0,0,.374.093,1.17,1.17,0,0,0,.355-.013.49.49,0,0,0,.253-.117.609.609,0,0,0,.173-.279.621.621,0,0,0,0-.317,1.163,1.163,0,0,0-.155-.344,2.454,2.454,0,0,0-.293-.359Z" transform="translate(-9.266 2.205)"/><path class="c" d="M18.845,9.741l.522-.393,2.3,3.054L23.6,10.948,21.3,7.893l.521-.393,2.658,3.525L21.5,13.265Z" transform="translate(-8.53 1.474)"/><path class="c" d="M20.092,7.365a.548.548,0,0,1-.092-.4.459.459,0,0,1,.577-.384.556.556,0,0,1,.331.241.548.548,0,0,1,.094.4.446.446,0,0,1-.2.323.45.45,0,0,1-.376.061A.551.551,0,0,1,20.092,7.365Z" transform="translate(-8.216 1.219)"/><path class="c" d="M21.994,7.36l.565-.328,1.924,3.306,2.088-1.215L24.646,5.817l.564-.328L27.431,9.3l-3.216,1.873Z" transform="translate(-7.67 0.925)"/><path class="c" d="M28.6,4.56l-.819.363,1.554,3.5-.6.265-1.554-3.5-.987.438,1.554,3.5-.6.266L25.367,5.359l3-1.33Z" transform="translate(-6.749 0.526)"/><path class="c" d="M30.6,3.236l.634-.154.9,3.719,2.348-.569-.9-3.719.635-.153,1.039,4.289-3.617.877Z" transform="translate(-5.319 0.07)"/><path class="c" d="M40.542,3.817A2.867,2.867,0,0,1,40.28,5.4a1.4,1.4,0,0,1-1.164.843,1.328,1.328,0,0,1-1.226-.485,2.538,2.538,0,0,1-.479-1.38,5.079,5.079,0,0,0-.222-1.259.845.845,0,0,0-.936-.563,1.086,1.086,0,0,0-.859.563,1.745,1.745,0,0,0-.233,1.1,2.011,2.011,0,0,0,.046.271.945.945,0,0,1,.686-.406.958.958,0,0,1,.786.292,1.28,1.28,0,0,1,.386.828,1.287,1.287,0,0,1-.23.895.982.982,0,0,1-.738.429,1.152,1.152,0,0,1-1.139-.708,3.685,3.685,0,0,1-.418-1.476,2.486,2.486,0,0,1,.32-1.635,1.693,1.693,0,0,1,1.335-.735q1.64-.151,1.868,2.317a2.451,2.451,0,0,0,.246.985.777.777,0,0,0,.808.378.791.791,0,0,0,.687-.583,2.318,2.318,0,0,0,.1-1.017,2.929,2.929,0,0,0-.326-1.132c-.227-.425-.508-.621-.843-.591l-.053-.587a1.421,1.421,0,0,1,1.307.586A2.758,2.758,0,0,1,40.542,3.817ZM36.409,5.248a.88.88,0,0,0-.131-.395.33.33,0,0,0-.312-.194.9.9,0,0,0-.626.411,1.34,1.34,0,0,0,.239.588.546.546,0,0,0,.5.266c.123-.01.214-.1.275-.256A.97.97,0,0,0,36.409,5.248Z" transform="translate(-4.248 -0.102)"/><path class="c" d="M38.481.995A.55.55,0,0,1,38.624.61a.458.458,0,0,1,.693,0,.55.55,0,0,1,.144.382.547.547,0,0,1-.14.384.46.46,0,0,1-.694,0A.542.542,0,0,1,38.481.995Z" transform="translate(-3.167 -0.451)"/><path class="c" d="M44.339,4.888a1.9,1.9,0,0,1-.135.629,1.3,1.3,0,0,1-.307.456,1.182,1.182,0,0,1-.465.267,1.719,1.719,0,0,1-.609.064l.036-.588q.773.048.825-.814a.771.771,0,0,0-.046-.35.532.532,0,0,0-.171-.225A.762.762,0,0,0,43.2,4.2a1.765,1.765,0,0,0-.345-.053l-.033.547a2.727,2.727,0,0,1-.1.607,1.393,1.393,0,0,1-.256.5,1.114,1.114,0,0,1-.444.326,1.5,1.5,0,0,1-.67.089,1,1,0,0,1-.362-.09,1.443,1.443,0,0,1-.326-.2,1.759,1.759,0,0,1-.28-.294,1.947,1.947,0,0,1-.213-.35,1.684,1.684,0,0,1-.13-.376A1.325,1.325,0,0,1,40,4.521a1.587,1.587,0,0,1,.064-.365,1.027,1.027,0,0,1,.153-.306.791.791,0,0,1,.25-.222.9.9,0,0,1,.36-.107l.107-1.756,2.914.177-.036.587-.863-.052L42.888,3.56l.211.013a1.445,1.445,0,0,1,.5.116,1.285,1.285,0,0,1,.4.269,1.17,1.17,0,0,1,.265.4A1.2,1.2,0,0,1,44.339,4.888ZM42.2,4.107l-.969-.059a1.011,1.011,0,0,0-.208.009.457.457,0,0,0-.181.071.42.42,0,0,0-.132.16.7.7,0,0,0-.061.27.877.877,0,0,0,.06.368,1.355,1.355,0,0,0,.183.339,1.18,1.18,0,0,0,.25.253.491.491,0,0,0,.257.108.607.607,0,0,0,.323-.061.636.636,0,0,0,.234-.214,1.155,1.155,0,0,0,.148-.346,2.38,2.38,0,0,0,.069-.458Zm.036-.587L42.3,2.438l-.747-.045-.066,1.081Z" transform="translate(-2.752 -0.092)"/><path class="c" d="M50.7,5.533a3.172,3.172,0,0,1-1.176,2l-.356-.4A3.026,3.026,0,0,0,50,5.66a2.358,2.358,0,0,0-.053-1.329A1.171,1.171,0,0,0,49.08,3.5a1.425,1.425,0,0,0-.626,0,2.424,2.424,0,0,1,.218,1.818,3.191,3.191,0,0,1-.5,1.183A.953.953,0,0,1,47.16,7,.917.917,0,0,1,46.5,6.19,2.728,2.728,0,0,1,46.523,5a2.636,2.636,0,0,1,.965-1.613,1.432,1.432,0,0,0-.713-.41,1.7,1.7,0,0,0-1.08.1,1.573,1.573,0,0,0-.817.793.594.594,0,0,1,.378-.042.938.938,0,0,1,.661.537,1.36,1.36,0,0,1,.09.918,1.751,1.751,0,0,1-.467.872.872.872,0,0,1-.842.283.976.976,0,0,1-.726-.7,2.024,2.024,0,0,1-.041-1.124A3.115,3.115,0,0,1,44.977,2.76,2.211,2.211,0,0,1,46.9,2.414a2.8,2.8,0,0,1,1.165.619,1.663,1.663,0,0,1,1.164-.093,1.838,1.838,0,0,1,1.232.945A2.231,2.231,0,0,1,50.7,5.533ZM45.346,5.12a.961.961,0,0,0,.008-.416.324.324,0,0,0-.234-.283.656.656,0,0,0-.427.065,2.6,2.6,0,0,0-.154.452,1.416,1.416,0,0,0-.027.542c.036.218.13.345.283.379.132.029.255-.053.367-.251A1.692,1.692,0,0,0,45.346,5.12Zm2.611.294A2.234,2.234,0,0,0,47.9,3.907a2.754,2.754,0,0,0-.8,2.005c.006.312.074.484.2.513q.218.048.432-.376A2.714,2.714,0,0,0,47.957,5.414Z" transform="translate(-1.695 0.064)"/><path class="c" d="M55.527,7.743A2.863,2.863,0,0,1,54.54,9a1.4,1.4,0,0,1-1.425.182,1.326,1.326,0,0,1-.844-1.013,2.528,2.528,0,0,1,.241-1.441,5.023,5.023,0,0,0,.409-1.211.845.845,0,0,0-.551-.942,1.084,1.084,0,0,0-1.024.083,1.75,1.75,0,0,0-.731.85,2.015,2.015,0,0,0-.089.26.944.944,0,0,1,.8-.028.96.96,0,0,1,.551.631,1.364,1.364,0,0,1-.69,1.588.984.984,0,0,1-.853.023,1.152,1.152,0,0,1-.661-1.167,3.688,3.688,0,0,1,.34-1.5,2.489,2.489,0,0,1,1.064-1.281A1.691,1.691,0,0,1,52.6,4.037q1.512.653.528,2.928a2.453,2.453,0,0,0-.256.982.778.778,0,0,0,.528.721.79.79,0,0,0,.884-.183,2.324,2.324,0,0,0,.578-.843,2.965,2.965,0,0,0,.256-1.15c0-.481-.148-.789-.457-.923l.233-.54a1.418,1.418,0,0,1,.868,1.139A2.748,2.748,0,0,1,55.527,7.743ZM51.212,7.02a.89.89,0,0,0,.075-.409.331.331,0,0,0-.182-.32.9.9,0,0,0-.747.06,1.364,1.364,0,0,0-.071.633.55.55,0,0,0,.314.475.339.339,0,0,0,.364-.094A.946.946,0,0,0,51.212,7.02Z" transform="translate(-0.111 0.48)"/><path class="c" d="M58.339,10.586a1.966,1.966,0,0,1-.42.489,1.3,1.3,0,0,1-.489.252,1.182,1.182,0,0,1-.535.011,1.684,1.684,0,0,1-.564-.236l.312-.5q.657.412,1.114-.32a.769.769,0,0,0,.127-.328.525.525,0,0,0-.042-.279.762.762,0,0,0-.177-.242,1.744,1.744,0,0,0-.278-.211l-.292.465a2.68,2.68,0,0,1-.382.483,1.388,1.388,0,0,1-.462.314,1.113,1.113,0,0,1-.545.073,1.5,1.5,0,0,1-.631-.242,1.011,1.011,0,0,1-.274-.252,1.5,1.5,0,0,1-.188-.337,1.784,1.784,0,0,1-.1-.391,2.123,2.123,0,0,1-.02-.41,1.742,1.742,0,0,1,.066-.392,1.355,1.355,0,0,1,.153-.346A1.549,1.549,0,0,1,54.94,7.9a1.006,1.006,0,0,1,.28-.2.8.8,0,0,1,.325-.075.918.918,0,0,1,.368.079l.934-1.49,2.475,1.551-.313.5-.732-.46-.577.918.18.113a1.472,1.472,0,0,1,.381.339,1.282,1.282,0,0,1,.225.43,1.149,1.149,0,0,1,.039.481A1.225,1.225,0,0,1,58.339,10.586Zm-1.5-1.71-.821-.514a.907.907,0,0,0-.187-.092.434.434,0,0,0-.192-.024.4.4,0,0,0-.192.076.707.707,0,0,0-.185.209.877.877,0,0,0-.123.35,1.351,1.351,0,0,0,0,.386,1.18,1.18,0,0,0,.1.342.5.5,0,0,0,.173.218.605.605,0,0,0,.313.1.616.616,0,0,0,.308-.075,1.1,1.1,0,0,0,.3-.233,2.35,2.35,0,0,0,.28-.369Zm.313-.5.575-.918-.635-.4-.575.918Z" transform="translate(1.204 1.124)"/><path class="c" d="M58.551,6.567a.551.551,0,0,1,.341-.227.457.457,0,0,1,.563.4.589.589,0,0,1-.448.623.46.46,0,0,1-.563-.4A.55.55,0,0,1,58.551,6.567Z" transform="translate(2.284 1.154)"/><path class="c" d="M61.34,13.082a1.936,1.936,0,0,1-.479.43,1.283,1.283,0,0,1-.516.188,1.184,1.184,0,0,1-.533-.056,1.679,1.679,0,0,1-.53-.306l.373-.455q.6.491,1.146-.176a.783.783,0,0,0,.168-.311.526.526,0,0,0-.006-.281.78.78,0,0,0-.145-.262,1.74,1.74,0,0,0-.248-.244l-.348.424a2.805,2.805,0,0,1-.44.43,1.375,1.375,0,0,1-.5.252,1.116,1.116,0,0,1-.55,0,1.481,1.481,0,0,1-.6-.321.979.979,0,0,1-.239-.285,1.4,1.4,0,0,1-.144-.358,1.722,1.722,0,0,1-.055-.4,2.061,2.061,0,0,1,.032-.409,1.757,1.757,0,0,1,.116-.381,1.336,1.336,0,0,1,.2-.325,1.573,1.573,0,0,1,.265-.257,1.05,1.05,0,0,1,.3-.159.806.806,0,0,1,.332-.032.884.884,0,0,1,.355.125l1.115-1.36,2.257,1.852-.373.455-.668-.549-.687.838.163.135a1.473,1.473,0,0,1,.335.383,1.288,1.288,0,0,1,.169.456,1.148,1.148,0,0,1-.023.483A1.2,1.2,0,0,1,61.34,13.082ZM60.064,11.2l-.75-.615a.947.947,0,0,0-.173-.115.436.436,0,0,0-.188-.048.4.4,0,0,0-.2.052.719.719,0,0,0-.21.182.9.9,0,0,0-.167.334,1.363,1.363,0,0,0-.05.382,1.182,1.182,0,0,0,.053.351.488.488,0,0,0,.145.238.61.61,0,0,0,.3.14.628.628,0,0,0,.314-.036,1.121,1.121,0,0,0,.323-.194,2.359,2.359,0,0,0,.323-.331Zm.374-.455.686-.838-.579-.476-.687.838Z" transform="translate(2.082 1.763)"/><path class="c" d="M60.487,13.975l3.25-2.987.442.48-2.816,2.59L62.4,15.184l1.88-1.73a2.466,2.466,0,0,1,.4-.3,1.253,1.253,0,0,1,.451-.164.967.967,0,0,1,.483.053,1.258,1.258,0,0,1,.493.355,1.051,1.051,0,0,1,.255.467,1.477,1.477,0,0,1,.025.536,2.326,2.326,0,0,1-.152.567,3.835,3.835,0,0,1-.279.555,4.473,4.473,0,0,1-.358.5,4.385,4.385,0,0,1-.386.412l-.572.525a1.5,1.5,0,0,1-.443.3.7.7,0,0,1-.384.043.86.86,0,0,1-.358-.169,2.748,2.748,0,0,1-.36-.335l-.686-.746a.779.779,0,0,0-.092.191.791.791,0,0,0-.039.214.654.654,0,0,0,.02.206.393.393,0,0,0,.09.167l.677.737-.433.4-.4-.438a.948.948,0,0,0-.292-.222,1.357,1.357,0,0,0-.325-.1,2.455,2.455,0,0,0-.356-.033c-.123,0-.251-.009-.382-.017s-.255-.022-.387-.042a1.93,1.93,0,0,1-.4-.112,2.2,2.2,0,0,1-.42-.227,2.624,2.624,0,0,1-.432-.383,1.006,1.006,0,0,1-.219-.36.945.945,0,0,1-.05-.382.968.968,0,0,1,.107-.369,1.1,1.1,0,0,1,.243-.318,1,1,0,0,1,.34-.21.968.968,0,0,1,.738.024.965.965,0,0,1,.316.23l.192.209-.438.4a.8.8,0,0,0-.387-.265.372.372,0,0,0-.344.111.292.292,0,0,0-.083.137.464.464,0,0,0-.017.173.619.619,0,0,0,.045.18.534.534,0,0,0,.1.157,1.482,1.482,0,0,0,.271.234,1.289,1.289,0,0,0,.274.139,1.474,1.474,0,0,0,.28.069c.094.014.187.023.28.028s.162.009.244.011.164.008.244.018a2.045,2.045,0,0,1,.244.042,1.6,1.6,0,0,1,.246.084.547.547,0,0,1-.131-.236.752.752,0,0,1-.019-.285,1.127,1.127,0,0,1,.083-.316,1.769,1.769,0,0,1,.177-.328Zm2.353,1.689.687.749a1.135,1.135,0,0,0,.118.113.391.391,0,0,0,.153.084.365.365,0,0,0,.182.005.493.493,0,0,0,.215-.127l.561-.517a3.929,3.929,0,0,0,.316-.328,4.4,4.4,0,0,0,.294-.386,3.894,3.894,0,0,0,.243-.41,2.13,2.13,0,0,0,.157-.4,1.037,1.037,0,0,0,.034-.355.468.468,0,0,0-.118-.275.514.514,0,0,0-.239-.159.5.5,0,0,0-.25,0,.774.774,0,0,0-.247.107,1.769,1.769,0,0,0-.227.176Z" transform="translate(2.425 2.427)"/><path class="c" d="M66.684,19.762a1.959,1.959,0,0,1-.581.281,1.31,1.31,0,0,1-.549.038,1.2,1.2,0,0,1-.5-.2,1.673,1.673,0,0,1-.424-.44l.485-.334q.437.638,1.148.149A.783.783,0,0,0,66.517,19a.529.529,0,0,0,.071-.272.749.749,0,0,0-.066-.292,1.85,1.85,0,0,0-.171-.306l-.452.311a2.748,2.748,0,0,1-.542.293,1.412,1.412,0,0,1-.549.1,1.127,1.127,0,0,1-.53-.15,1.5,1.5,0,0,1-.484-.472,1.027,1.027,0,0,1-.15-.341,1.478,1.478,0,0,1-.039-.384,1.767,1.767,0,0,1,.06-.4,2.031,2.031,0,0,1,.144-.383,1.8,1.8,0,0,1,.218-.335,1.385,1.385,0,0,1,.278-.257,1.559,1.559,0,0,1,.327-.173,1.04,1.04,0,0,1,.334-.069.818.818,0,0,1,.328.061.9.9,0,0,1,.307.219l1.449-1L68.7,17.566l-.485.334-.49-.713-.892.614.12.174a1.493,1.493,0,0,1,.214.462,1.286,1.286,0,0,1,.037.485,1.171,1.171,0,0,1-.157.457A1.215,1.215,0,0,1,66.684,19.762Zm-.7-2.166-.55-.8a.919.919,0,0,0-.135-.159.435.435,0,0,0-.167-.1.419.419,0,0,0-.208-.006.722.722,0,0,0-.251.118.9.9,0,0,0-.253.272,1.4,1.4,0,0,0-.154.354,1.159,1.159,0,0,0-.046.353.494.494,0,0,0,.073.269.613.613,0,0,0,.247.218.642.642,0,0,0,.313.053,1.151,1.151,0,0,0,.364-.1,2.4,2.4,0,0,0,.4-.228Zm.485-.334.894-.614-.425-.619-.892.615Z" transform="translate(3.695 3.566)"/><path class="c" d="M65.3,20.258,69.254,18.3l.29.584-3.428,1.7.68,1.37,2.289-1.134a2.368,2.368,0,0,1,.465-.173,1.249,1.249,0,0,1,.479-.032.99.99,0,0,1,.448.186,1.273,1.273,0,0,1,.374.48,1.036,1.036,0,0,1,.113.519,1.456,1.456,0,0,1-.125.522,2.306,2.306,0,0,1-.3.5,3.845,3.845,0,0,1-.423.455,4.6,4.6,0,0,1-.484.383,4.1,4.1,0,0,1-.486.288l-.7.345a1.48,1.48,0,0,1-.509.164.7.7,0,0,1-.382-.065.864.864,0,0,1-.3-.262,2.829,2.829,0,0,1-.253-.423Zm1.786,2.279.452.91a1.423,1.423,0,0,0,.081.143.423.423,0,0,0,.123.123.362.362,0,0,0,.174.055.476.476,0,0,0,.242-.062l.682-.339a3.671,3.671,0,0,0,.395-.228,4.115,4.115,0,0,0,.391-.288,3.889,3.889,0,0,0,.349-.326,2.03,2.03,0,0,0,.261-.341.97.97,0,0,0,.132-.332.46.46,0,0,0-.037-.3.517.517,0,0,0-.185-.219.512.512,0,0,0-.238-.074.762.762,0,0,0-.267.034,1.655,1.655,0,0,0-.266.106Z" transform="translate(4.157 4.423)"/><path class="c" d="M70.769,20.914a.551.551,0,0,1,.41-.009.457.457,0,0,1,.258.643.589.589,0,0,1-.712.286.45.45,0,0,1-.276-.264.458.458,0,0,1,.017-.381A.553.553,0,0,1,70.769,20.914Z" transform="translate(5.555 5.126)"/></g><g transform="translate(16.062 64.795)"><path class="f" d="M13.87,56.107l-.213-.308,1.85-1.278a1.069,1.069,0,0,0,.442-.6.755.755,0,0,0-.1-.665.867.867,0,0,0-.747-.406,1.614,1.614,0,0,0-.9.331,2.756,2.756,0,0,0-.537.486,1.565,1.565,0,0,0-.344.61.211.211,0,0,1,.055-.052.645.645,0,0,1,.466-.116.523.523,0,0,1,.457.668.7.7,0,0,1-.3.406.621.621,0,0,1-.477.1.566.566,0,0,1-.384-.237,1.07,1.07,0,0,1-.022-1.179,2.815,2.815,0,0,1,.923-.988,1.786,1.786,0,0,1,1.148-.351,1.185,1.185,0,0,1,.946.53,1.091,1.091,0,0,1,.166.97,1.6,1.6,0,0,1-.67.862ZM13.8,54.856a.411.411,0,0,0,.134-.152.162.162,0,0,0,0-.176.168.168,0,0,0-.168-.065.391.391,0,0,0-.191.071.409.409,0,0,0-.137.154.155.155,0,0,0,.166.242A.433.433,0,0,0,13.8,54.856Z" transform="translate(-12.951 -51.024)"/><path class="f" d="M16.231,56.888l-.362-.451-.253.2a1.716,1.716,0,0,1-.307.2.824.824,0,0,1-.317.088.653.653,0,0,1-.314-.059.858.858,0,0,1-.3-.25.575.575,0,0,1-.1-.19.8.8,0,0,1-.037-.222,1,1,0,0,1,.02-.236,1.165,1.165,0,0,1,.07-.229,1.008,1.008,0,0,1,.115-.2.785.785,0,0,1,.154-.163.906.906,0,0,1,.185-.118.639.639,0,0,1,.192-.057.485.485,0,0,1,.195.019.534.534,0,0,1,.187.111l.811-.653,1.054,1.311-.271.218-.312-.387-.5.4.363.451Zm-.6-.743-.351-.435a.485.485,0,0,0-.084-.085.236.236,0,0,0-.1-.048.25.25,0,0,0-.121.008.416.416,0,0,0-.143.081.521.521,0,0,0-.137.171.817.817,0,0,0-.078.214.679.679,0,0,0-.014.206.268.268,0,0,0,.052.152.346.346,0,0,0,.152.115.389.389,0,0,0,.185.014.666.666,0,0,0,.21-.075,1.37,1.37,0,0,0,.228-.153Zm.271-.219.5-.4-.27-.336-.5.4Z" transform="translate(-12.599 -50.437)"/><path class="f" d="M17.449,60.071l-1.479-1.56.279-.264a.983.983,0,0,1-.364.015.53.53,0,0,1-.311-.169c-.173-.182-.131-.4.127-.642l1.509-1.431.258.272-1.5,1.427c-.059.055-.067.108-.028.157s.157.071.351.066a.659.659,0,0,0,.448-.158l1.131-1.072.258.272-1.644,1.558.961,1.013L19.086,58l.258.272Z" transform="translate(-12.263 -50.069)"/><path class="f" d="M20.8,61.135a1.725,1.725,0,0,1-.775.541.8.8,0,0,1-.822-.137.759.759,0,0,1-.283-.709,1.53,1.53,0,0,1,.4-.768,3.07,3.07,0,0,0,.447-.61.49.49,0,0,0-.134-.621.621.621,0,0,0-.582-.125,1.046,1.046,0,0,0-.559.354,1.076,1.076,0,0,0-.1.13.54.54,0,0,1,.446.118.551.551,0,0,1,.19.447.827.827,0,0,1-.672.774.56.56,0,0,1-.476-.13.668.668,0,0,1-.153-.766,2.253,2.253,0,0,1,.461-.782,1.5,1.5,0,0,1,.824-.539.961.961,0,0,1,.844.252q.718.621-.242,1.731a1.493,1.493,0,0,0-.321.507.446.446,0,0,0,.16.493.454.454,0,0,0,.522.046,1.4,1.4,0,0,0,.475-.376,1.8,1.8,0,0,0,.351-.6.513.513,0,0,0-.084-.595l.228-.264a.814.814,0,0,1,.271.784A1.647,1.647,0,0,1,20.8,61.135ZM18.542,60a.528.528,0,0,0,.116-.216.189.189,0,0,0-.042-.209.511.511,0,0,0-.424-.093.819.819,0,0,0-.155.342.315.315,0,0,0,.087.32.2.2,0,0,0,.219.008A.571.571,0,0,0,18.542,60Z" transform="translate(-11.662 -49.448)"/><path class="f" d="M20.011,62.515l-.3-.228,1.235-1.618a2.026,2.026,0,0,0,.428-.794.719.719,0,0,0-.341-.707.637.637,0,0,0-.336-.132.365.365,0,0,0-.345.135.308.308,0,0,0-.067.173.162.162,0,0,0,.069.144l-.211.278a.552.552,0,0,1-.233-.367.6.6,0,0,1,.141-.452.679.679,0,0,1,.61-.265,1.069,1.069,0,0,1,.6.222,1.138,1.138,0,0,1,.469.789,1.294,1.294,0,0,1-.3.955Z" transform="translate(-11.104 -49.343)"/><path class="f" d="M23.453,63.031a3.6,3.6,0,0,1-.337.424,2.282,2.282,0,0,1-.328.289,1.523,1.523,0,0,1-.313.178A1.247,1.247,0,0,1,22.18,64a1.086,1.086,0,0,1-.271.008,1.274,1.274,0,0,1-.242-.047,1.347,1.347,0,0,1-.209-.083,1.477,1.477,0,0,1-.171-.1l-.67-.46a.892.892,0,0,0-.21-.111.361.361,0,0,0-.169-.015.306.306,0,0,0-.144.074.772.772,0,0,0-.132.153l-.309-.215a1.19,1.19,0,0,1,.255-.278.563.563,0,0,1,.27-.113.624.624,0,0,1,.3.038,1.484,1.484,0,0,1,.34.181l.667.458a1.6,1.6,0,0,0,.2.115.774.774,0,0,0,.229.07.758.758,0,0,0,.261-.009.9.9,0,0,0,.292-.122,1.808,1.808,0,0,0,.323-.265,3.275,3.275,0,0,0,.358-.442c.048-.07.1-.144.145-.219s.09-.15.13-.225a1.433,1.433,0,0,0,.092-.224.711.711,0,0,0,.034-.211.444.444,0,0,0-.046-.191.421.421,0,0,0-.146-.159.5.5,0,0,0-.19-.08.562.562,0,0,0-.2,0,.52.52,0,0,0-.188.074.5.5,0,0,0-.152.146l-.983,1.432-.3-.2,1.052-1.532a.514.514,0,0,0,.071-.149.423.423,0,0,0,.013-.148.338.338,0,0,0-.042-.131.3.3,0,0,0-.094-.1.3.3,0,0,0-.126-.05.309.309,0,0,0-.136.008.368.368,0,0,0-.129.064.482.482,0,0,0-.111.116l-1.057,1.54-.311-.213,1.071-1.561a.683.683,0,0,1,.206-.195.781.781,0,0,1,.26-.1.733.733,0,0,1,.274,0,.651.651,0,0,1,.253.1.641.641,0,0,1,.265.624.713.713,0,0,1,.726.056.905.905,0,0,1,.286.3.715.715,0,0,1,.084.381,1.339,1.339,0,0,1-.118.471A3.472,3.472,0,0,1,23.453,63.031Z" transform="translate(-11.121 -48.843)"/><path class="f" d="M23.089,60.791a.327.327,0,0,1,.191-.148.258.258,0,0,1,.339.211.358.358,0,0,1-.241.386.258.258,0,0,1-.219-.028.253.253,0,0,1-.12-.185A.332.332,0,0,1,23.089,60.791Z" transform="translate(-10.197 -48.811)"/><path class="f" d="M26.054,66.015l-.335-.169,1.016-2.006a1.063,1.063,0,0,0,.1-.74.762.762,0,0,0-.409-.535.865.865,0,0,0-.85,0,1.62,1.62,0,0,0-.631.719,2.766,2.766,0,0,0-.241.684,1.556,1.556,0,0,0-.011.7.3.3,0,0,1,.023-.073.661.661,0,0,1,.355-.325.523.523,0,0,1,.442.011.516.516,0,0,1,.279.359.709.709,0,0,1-.066.5.62.62,0,0,1-.37.318.561.561,0,0,1-.452-.024,1.07,1.07,0,0,1-.581-1.026,2.812,2.812,0,0,1,.34-1.309,1.787,1.787,0,0,1,.842-.857,1.187,1.187,0,0,1,1.083.014,1.091,1.091,0,0,1,.609.775,1.6,1.6,0,0,1-.178,1.077ZM25.4,64.948a.406.406,0,0,0,.045-.2.162.162,0,0,0-.08-.157.167.167,0,0,0-.178.023.4.4,0,0,0-.134.154.421.421,0,0,0-.047.2.154.154,0,0,0,.26.134A.418.418,0,0,0,25.4,64.948Z" transform="translate(-9.845 -48.404)"/><path class="f" d="M28.544,65.516l-.533-.223-.126.3a1.659,1.659,0,0,1-.174.318.864.864,0,0,1-.237.23.672.672,0,0,1-.306.1.857.857,0,0,1-.382-.076.556.556,0,0,1-.178-.12.778.778,0,0,1-.137-.176,1.016,1.016,0,0,1-.1-.218,1.265,1.265,0,0,1-.047-.236,1.108,1.108,0,0,1,0-.234.832.832,0,0,1,.057-.216.9.9,0,0,1,.107-.192.578.578,0,0,1,.143-.141.439.439,0,0,1,.178-.076.509.509,0,0,1,.218.008l.4-.96,1.551.648-.134.322-.46-.192-.248.592.533.223Zm-.881-.368-.516-.215a.49.49,0,0,0-.115-.034.238.238,0,0,0-.112.006.236.236,0,0,0-.1.064.434.434,0,0,0-.087.14.52.52,0,0,0-.039.216.815.815,0,0,0,.033.224.692.692,0,0,0,.087.188.275.275,0,0,0,.118.108.344.344,0,0,0,.188.028.369.369,0,0,0,.169-.076.7.7,0,0,0,.148-.164,1.494,1.494,0,0,0,.127-.243Zm.135-.321.247-.592-.4-.167-.247.592Z" transform="translate(-9.299 -47.999)"/><path class="f" d="M28.169,66.757l.814-2.484.358.117-.705,2.153.836.275.471-1.437a1.49,1.49,0,0,1,.12-.269.736.736,0,0,1,.182-.216.588.588,0,0,1,.26-.115.724.724,0,0,1,.349.038.592.592,0,0,1,.258.166.883.883,0,0,1,.162.267,1.385,1.385,0,0,1,.08.335,2.2,2.2,0,0,1,.014.367,2.878,2.878,0,0,1-.042.363,2.449,2.449,0,0,1-.08.323l-.143.437a.927.927,0,0,1-.141.285.414.414,0,0,1-.182.135.5.5,0,0,1-.228.018,1.575,1.575,0,0,1-.276-.067Zm1.66.178.556.182a.944.944,0,0,0,.092.024.224.224,0,0,0,.1,0,.2.2,0,0,0,.093-.051.29.29,0,0,0,.074-.129l.14-.429a2.216,2.216,0,0,0,.069-.261A2.63,2.63,0,0,0,31,65.985,2.332,2.332,0,0,0,31,65.7a1.237,1.237,0,0,0-.032-.251.566.566,0,0,0-.083-.192.258.258,0,0,0-.136-.107.286.286,0,0,0-.164-.011.3.3,0,0,0-.129.071.467.467,0,0,0-.094.127.948.948,0,0,0-.066.157Z" transform="translate(-8.795 -47.815)"/><path class="f" d="M30.609,64.358a.327.327,0,0,1,.14-.2.259.259,0,0,1,.384.107.354.354,0,0,1-.121.438.262.262,0,0,1-.386-.107A.335.335,0,0,1,30.609,64.358Z" transform="translate(-8.132 -47.859)"/><path class="f" d="M34.85,67.132a1.91,1.91,0,0,1-.677,1.189l-.206-.232a1.8,1.8,0,0,0,.481-.877,1.429,1.429,0,0,0-.031-.786.673.673,0,0,0-.5-.482.808.808,0,0,0-.362.006,1.459,1.459,0,0,1,.126,1.073,1.944,1.944,0,0,1-.289.7.552.552,0,0,1-.582.3c-.195-.043-.321-.2-.379-.472a1.635,1.635,0,0,1,.011-.7,1.585,1.585,0,0,1,.556-.96.808.808,0,0,0-.411-.238.96.96,0,0,0-.623.066.927.927,0,0,0-.471.475.335.335,0,0,1,.218-.028.537.537,0,0,1,.381.313.822.822,0,0,1,.052.542,1.05,1.05,0,0,1-.269.518.5.5,0,0,1-.485.174.563.563,0,0,1-.419-.409,1.222,1.222,0,0,1-.024-.663,1.888,1.888,0,0,1,.6-1.106,1.251,1.251,0,0,1,1.11-.219,1.552,1.552,0,0,1,.672.358.94.94,0,0,1,.672-.064,1.05,1.05,0,0,1,.71.55A1.338,1.338,0,0,1,34.85,67.132Zm-3.086-.206a.573.573,0,0,0,0-.246c-.02-.1-.065-.15-.135-.166a.368.368,0,0,0-.246.042,1.631,1.631,0,0,0-.089.267.866.866,0,0,0-.015.321c.02.13.075.2.164.223s.146-.033.211-.15A1.076,1.076,0,0,0,31.764,66.925Zm1.506.157a1.353,1.353,0,0,0-.034-.891,1.588,1.588,0,0,0-.428.811,1.611,1.611,0,0,0-.036.381c0,.185.043.285.118.3s.167-.056.248-.225A1.62,1.62,0,0,0,33.27,67.082Z" transform="translate(-8.045 -47.542)"/><path class="f" d="M34.3,68.358l.3-2.6.373.043-.26,2.251.876.1.173-1.5a1.5,1.5,0,0,1,.062-.286.735.735,0,0,1,.136-.248.563.563,0,0,1,.23-.163.705.705,0,0,1,.349-.033.6.6,0,0,1,.286.109.86.86,0,0,1,.213.23,1.33,1.33,0,0,1,.146.312,2.369,2.369,0,0,1,.087.355,2.721,2.721,0,0,1,.032.364,2.518,2.518,0,0,1-.014.334l-.052.457a.894.894,0,0,1-.081.306.4.4,0,0,1-.152.169.5.5,0,0,1-.219.064,1.572,1.572,0,0,1-.284-.01Zm1.661-.159.582.066a.712.712,0,0,0,.094.005.216.216,0,0,0,.1-.022.207.207,0,0,0,.081-.069.279.279,0,0,0,.046-.14l.052-.448a2.262,2.262,0,0,0,.014-.27,2.7,2.7,0,0,0-.015-.286,2.377,2.377,0,0,0-.048-.278,1.184,1.184,0,0,0-.081-.241.586.586,0,0,0-.118-.172.261.261,0,0,0-.155-.076.293.293,0,0,0-.164.022.285.285,0,0,0-.111.1.484.484,0,0,0-.067.144,1.03,1.03,0,0,0-.033.166Z" transform="translate(-7.121 -47.409)"/><path class="f" d="M38.706,68.728l.042-.759.027-.877.014-.8,0-.269c.286,0,.586,0,.9-.006l.334-.005.5-.008-.017.428-.166-.009c-.046,0-.108,0-.188,0s-.162,0-.246,0l-.35.005c-.053,0-.132,0-.239.009l-.02.7c.159,0,.32,0,.48,0,.112,0,.3-.008.565-.018-.009.12-.015.265-.02.432h-.532c-.138,0-.308.008-.512.018l-.02.741h.191l.383-.009.378-.011.252-.017c-.01.153-.017.3-.019.433q-.453,0-.817.005l-.572.009Z" transform="translate(-5.917 -47.342)"/><path class="f" d="M40.241,68.746l.117-.19c.037-.057.1-.162.188-.309l.425-.719.132-.239-.241-.383-.579-.871c.115-.005.223-.011.327-.019q.126-.008.286-.023c.074.15.157.307.248.468s.163.3.214.4c.064-.116.155-.269.276-.458s.211-.349.278-.479c.1,0,.191-.009.289-.015.062,0,.158-.013.288-.024q-.124.216-.354.6c-.153.252-.3.5-.434.743.181.293.477.746.892,1.363l-.3.015-.321.027c-.073-.125-.171-.275-.292-.453s-.218-.322-.289-.435c-.059.107-.146.256-.262.446s-.219.364-.306.521c-.127.006-.223.011-.289.017S40.368,68.735,40.241,68.746Z" transform="translate(-5.498 -47.376)"/><path class="f" d="M44.278,67.865c-.006.157-.008.316-.006.476a3.522,3.522,0,0,1-.354.1,2.78,2.78,0,0,1-.28.052,1.526,1.526,0,0,1-.505-.019,1.206,1.206,0,0,1-.457-.208,1.028,1.028,0,0,1-.328-.4,1.852,1.852,0,0,1-.13-1.159,1.291,1.291,0,0,1,.233-.505,1.232,1.232,0,0,1,.415-.341A1.635,1.635,0,0,1,43.4,65.7a2.869,2.869,0,0,1,.621-.005c.018.116.032.2.042.246l.038.209a2.786,2.786,0,0,0-.335-.039,1.445,1.445,0,0,0-.25.01,1.025,1.025,0,0,0-.348.108.8.8,0,0,0-.274.242.975.975,0,0,0-.158.363,1.255,1.255,0,0,0-.018.42,1.156,1.156,0,0,0,.145.447.732.732,0,0,0,.318.293.847.847,0,0,0,.489.065A2.076,2.076,0,0,0,44.278,67.865Z" transform="translate(-4.969 -47.43)"/><path class="f" d="M44.317,68.367l-.089-.755-.123-.87-.123-.788-.048-.265q.422-.074.882-.16l.328-.062.494-.094.057.425-.164.02c-.045.005-.107.015-.186.028l-.242.043-.345.065-.234.05.1.7c.157-.024.314-.052.474-.081.109-.02.294-.059.553-.115.013.12.031.264.055.429-.306.052-.48.083-.525.092-.135.024-.3.06-.5.1l.107.733.19-.033.376-.074.37-.076.246-.06c.017.153.034.3.055.432q-.447.078-.8.144l-.563.107Z" transform="translate(-4.489 -47.515)"/><path class="f" d="M46.082,67.989q-.088-.592-.228-1.311t-.284-1.346l.289-.065c.052-.013.135-.033.248-.064.041.234.089.5.148.8l.15.78c.042.224.087.444.135.665l.292-.066c.274-.065.453-.109.539-.132s.171-.046.252-.071c.02.129.045.27.073.425q-.445.1-.763.178l-.533.129Z" transform="translate(-4.042 -47.562)"/><path class="f" d="M47.632,67.615c-.078-.392-.174-.824-.29-1.3s-.232-.918-.348-1.33c.115-.031.209-.057.285-.079.051-.015.134-.039.244-.075.052.232.113.5.186.791l.187.773c.053.222.108.44.167.657l.289-.08c.27-.078.447-.13.532-.157s.167-.055.247-.083c.027.126.057.266.093.42l-.754.214-.526.155Z" transform="translate(-3.653 -47.663)"/><path class="f" d="M49.177,67.248l-.2-.733-.252-.84-.239-.761-.088-.255c.271-.092.555-.188.848-.29l.316-.111.475-.167.12.411L50,64.547l-.18.056c-.076.025-.154.051-.233.079-.171.059-.281.1-.331.116l-.224.084.2.673c.151-.048.3-.1.456-.151.106-.036.281-.1.53-.195.031.116.07.255.118.415l-.505.168c-.13.046-.29.1-.48.179l.215.709.182-.061.36-.129.355-.131.233-.1c.039.148.079.288.12.418q-.43.143-.773.264l-.541.188Z" transform="translate(-3.27 -47.865)"/><path class="f" d="M50.9,66.715q-.107-.34-.26-.754l-.336-.91q-.183-.495-.341-.873c.126-.048.232-.092.318-.127.064-.028.158-.067.279-.121q.332.285.894.729t.915.745l-.647-1.72c-.015-.041-.043-.109-.083-.2q.153-.059.229-.092c.02-.009.1-.041.224-.1l.239.689.429,1.167.262.685c-.113.043-.208.081-.286.115-.062.025-.162.069-.3.13-.1-.087-.173-.15-.223-.191q-.116-.094-.489-.379-.244-.191-.617-.489c-.183-.146-.341-.276-.475-.386q.111.3.418,1.114c.084.222.186.481.3.782-.1.039-.174.067-.22.087Z" transform="translate(-2.842 -48.084)"/><path class="f" d="M54.505,64.481c.046.149.1.3.149.452q-.16.122-.3.21c-.094.059-.177.1-.248.14a1.5,1.5,0,0,1-.484.145,1.2,1.2,0,0,1-.5-.046,1.036,1.036,0,0,1-.439-.267,1.865,1.865,0,0,1-.5-1.054,1.288,1.288,0,0,1,.057-.554,1.214,1.214,0,0,1,.281-.457,1.625,1.625,0,0,1,.451-.327,2.909,2.909,0,0,1,.586-.206c.055.1.094.177.12.219l.1.185a2.83,2.83,0,0,0-.33.071,1.613,1.613,0,0,0-.233.09,1.03,1.03,0,0,0-.293.216.782.782,0,0,0-.181.318.981.981,0,0,0-.032.393,1.24,1.24,0,0,0,.121.4,1.14,1.14,0,0,0,.281.374.734.734,0,0,0,.4.174.862.862,0,0,0,.483-.1A2.091,2.091,0,0,0,54.505,64.481Z" transform="translate(-2.239 -48.295)"/><path class="f" d="M54.759,64.937l-.328-.685-.4-.783-.372-.707-.132-.234q.376-.208.783-.437l.29-.165.438-.248.192.382-.15.073c-.041.02-.1.05-.166.088s-.143.078-.215.118l-.306.173c-.046.027-.115.067-.2.123l.32.626c.141-.075.281-.151.423-.23.1-.055.258-.15.485-.288.051.109.115.238.191.388l-.467.256c-.12.067-.266.154-.44.262l.339.658.168-.092.332-.192.326-.192.213-.135c.065.139.129.269.192.39q-.4.218-.714.4l-.5.283Z" transform="translate(-1.869 -48.524)"/><path class="f" d="M56.943,63.534q-.334-.594-.7-1.209t-.573-.932l-.116-.177.246-.155.223-.148q.506.913,1.392,2.318l-.216.135Z" transform="translate(-1.316 -48.733)"/><path class="f" d="M57.708,63.272q-.18-.307-.423-.676l-.532-.812q-.29-.439-.528-.774c.111-.075.2-.141.28-.2.057-.039.139-.1.246-.18q.388.2,1.034.511c.432.2.786.379,1.061.519l-1.017-1.532-.127-.18c.09-.061.158-.108.2-.14l.2-.146.388.616.68,1.043.41.607c-.1.069-.185.127-.253.177s-.143.1-.264.194c-.116-.061-.2-.107-.26-.135-.09-.043-.276-.13-.561-.261-.188-.087-.425-.2-.713-.337q-.317-.153-.549-.269.176.267.658.992c.131.2.288.428.472.693-.09.061-.155.106-.2.135Z" transform="translate(-1.132 -49.073)"/><path class="f" d="M59.8,61.562c-.067-.262-.155-.583-.265-.96l-.306-1.057q-.139-.491-.253-.84c.117-.1.2-.164.246-.2.084-.073.164-.144.243-.214l.717.451,1.5.918.2.116-.2.167c-.046.039-.122.107-.228.2-.1-.071-.236-.163-.41-.275s-.32-.2-.433-.269l-.694.6c.1.326.21.656.325.987l-.218.182C59.99,61.4,59.913,61.464,59.8,61.562Zm-.033-1.781.505-.435-.8-.516.111.345Z" transform="translate(-0.38 -49.451)"/><path class="f" d="M62.815,58.252c.089.129.182.257.28.384-.076.111-.15.209-.222.293s-.136.154-.192.21a1.514,1.514,0,0,1-.416.288,1.222,1.222,0,0,1-.49.111,1.036,1.036,0,0,1-.5-.12,1.864,1.864,0,0,1-.8-.848,1.293,1.293,0,0,1-.117-.544,1.242,1.242,0,0,1,.127-.523,1.614,1.614,0,0,1,.328-.449,2.824,2.824,0,0,1,.493-.377c.084.081.145.139.181.172l.157.143a2.8,2.8,0,0,0-.292.171,1.53,1.53,0,0,0-.194.158,1,1,0,0,0-.211.3.806.806,0,0,0-.075.358.963.963,0,0,0,.093.384,1.227,1.227,0,0,0,.238.346,1.146,1.146,0,0,0,.384.27.739.739,0,0,0,.43.043.85.85,0,0,0,.43-.242A2.116,2.116,0,0,0,62.815,58.252Z" transform="translate(-0.004 -49.89)"/><path class="f" d="M63.594,58.252l-.4-.42-.606-.612-.606-.593-.083.089-.075.084-.071.08-.264.3c-.132-.135-.236-.238-.307-.306.228-.243.467-.5.715-.768l.423-.46.225-.247c.13.136.232.238.307.307q-.227.22-.424.432l-.09.1.251.261.988.982.168.162c.07.066.144.134.22.2l-.183.192Z" transform="translate(0.222 -50.238)"/><path class="f" d="M64.354,57.183q-.489-.474-1.016-.96t-.814-.732l-.162-.136.192-.219.171-.2q.745.733,1.992,1.828l-.169.192C64.521,56.983,64.456,57.061,64.354,57.183Z" transform="translate(0.544 -50.367)"/><path class="f" d="M63.525,53.985a1.5,1.5,0,0,1,.369-.344,1.08,1.08,0,0,1,.469-.172,1.2,1.2,0,0,1,.508.041,1.591,1.591,0,0,1,.505.275,1.87,1.87,0,0,1,.406.428,1.245,1.245,0,0,1,.21.511,1.136,1.136,0,0,1-.042.541,1.615,1.615,0,0,1-.269.5,1.562,1.562,0,0,1-.4.368,1.133,1.133,0,0,1-1,.121,1.688,1.688,0,0,1-.47-.265,1.8,1.8,0,0,1-.415-.448,1.209,1.209,0,0,1-.195-.523,1.313,1.313,0,0,1,.053-.533A1.61,1.61,0,0,1,63.525,53.985Zm.316.28a.773.773,0,0,0-.172.446.842.842,0,0,0,.117.463,1.35,1.35,0,0,0,.346.393,1.184,1.184,0,0,0,.433.216.693.693,0,0,0,.44-.028.829.829,0,0,0,.35-.266.8.8,0,0,0,.149-.3.713.713,0,0,0,0-.34.915.915,0,0,0-.157-.339,1.4,1.4,0,0,0-.284-.293,1.381,1.381,0,0,0-.328-.191.849.849,0,0,0-.342-.064.655.655,0,0,0-.311.088A.84.84,0,0,0,63.841,54.265Z" transform="translate(0.772 -50.769)"/><path class="f" d="M66.454,54.86q-.275-.225-.633-.485l-.783-.574q-.426-.309-.766-.539c.078-.111.141-.2.195-.283.038-.057.093-.143.166-.255q.433.053,1.148.116t1.175.115l-1.491-1.077c-.036-.025-.1-.066-.182-.123.064-.089.111-.158.141-.2.013-.018.057-.087.134-.2l.579.441,1,.737.6.426c-.07.1-.127.183-.176.253l-.178.274c-.13-.017-.227-.029-.292-.036-.1-.009-.3-.024-.616-.047q-.309-.023-.786-.065c-.234-.022-.437-.042-.609-.06q.258.189.964.7.288.206.685.481c-.062.089-.108.154-.135.195S66.527,54.749,66.454,54.86Z" transform="translate(1.065 -51.346)"/></g></g></g></svg>