<svg xmlns="http://www.w3.org/2000/svg" width="48.466" height="39.582" viewBox="0 0 48.466 39.582"><defs><style>.a{fill:#faec26;}</style></defs><path class="a" d="M89.256,82.762A11.007,11.007,0,0,1,87.9,83.946q-10.247,6.323-20.51,12.6a4.219,4.219,0,0,1-4.757,0Q52.338,90.21,42.039,83.9a7.091,7.091,0,0,1-.67-.444,1.215,1.215,0,0,1,0-2.071,3.054,3.054,0,0,1,.522-.32q10.63-5.326,21.266-10.63a3.978,3.978,0,0,1,3.727,0q10.63,5.31,21.251,10.65a5.6,5.6,0,0,1,1.12,1.023Z" transform="translate(-40.79 -69.975)"/><path class="a" d="M115.584,207.945c0,1.342-.032,2.685.009,4.024a5.617,5.617,0,0,1-1.625,4.059,14.963,14.963,0,0,1-5.281,3.584,29.443,29.443,0,0,1-14.537,2.146A26.591,26.591,0,0,1,84.289,219a12.491,12.491,0,0,1-4.631-3.739,5.1,5.1,0,0,1-1-3.044v-8.143a3.266,3.266,0,0,1,.1-.886.611.611,0,0,1,.883-.44,3.06,3.06,0,0,1,.587.3q6.7,4.1,13.392,8.207a6.257,6.257,0,0,0,7,0q6.9-4.225,13.789-8.457a4.216,4.216,0,0,1,.367-.216c.435-.21.694-.082.779.4a3.748,3.748,0,0,1,.03.609Q115.586,205.763,115.584,207.945Z" transform="translate(-72.892 -182.323)"/><path class="a" d="M328.4,197.018c0,2.283.011,4.576-.011,6.863a1.021,1.021,0,0,0,.472.939,2.459,2.459,0,0,1,.852,2.866,2.541,2.541,0,0,1-2.435,1.622,2.482,2.482,0,0,1-2.342-1.942,2.36,2.36,0,0,1,.94-2.549,1.029,1.029,0,0,0,.457-.945c-.014-4.18,0-8.362-.021-12.544a1.456,1.456,0,0,1,.811-1.505c.2-.1.379-.225.571-.335.566-.323.7-.25.7.425C328.408,192.276,328.4,194.643,328.4,197.018Z" transform="translate(-281.641 -171.143)"/></svg>