<svg xmlns="http://www.w3.org/2000/svg" width="93" height="93" viewBox="0 0 93 93"><defs><style>.a{fill:#5b72a2;}.b{fill:#fff;}</style></defs><g transform="translate(-676 -2729)"><g transform="translate(339 20)"><circle class="a" cx="46.5" cy="46.5" r="46.5" transform="translate(337 2709)"/></g><g transform="translate(696.567 2753.455)"><path class="b" d="M94.775,84.218a12.26,12.26,0,0,1-1.514,1.319Q81.848,92.58,70.416,99.576a4.7,4.7,0,0,1-5.3,0Q53.653,92.514,42.182,85.489a7.9,7.9,0,0,1-.746-.495,1.353,1.353,0,0,1,0-2.307,3.4,3.4,0,0,1,.581-.356q11.84-5.933,23.688-11.84a4.431,4.431,0,0,1,4.151,0Q81.7,76.405,93.527,82.353a6.239,6.239,0,0,1,1.248,1.139Z" transform="translate(-40.791 -69.975)"/><path class="b" d="M119.79,208.567c0,1.5-.036,2.99.01,4.482a6.256,6.256,0,0,1-1.81,4.521,16.666,16.666,0,0,1-5.882,3.992,32.8,32.8,0,0,1-16.192,2.39,29.62,29.62,0,0,1-10.984-3.072,13.913,13.913,0,0,1-5.158-4.165,5.685,5.685,0,0,1-1.117-3.39v-9.071a3.638,3.638,0,0,1,.114-.987.681.681,0,0,1,.983-.49,3.409,3.409,0,0,1,.654.339q7.459,4.567,14.917,9.142a6.97,6.97,0,0,0,7.8,0q7.682-4.706,15.36-9.42a4.7,4.7,0,0,1,.409-.241c.485-.234.773-.092.868.444a4.175,4.175,0,0,1,.034.678Q119.791,206.136,119.79,208.567Z" transform="translate(-72.237 -180.027)"/><path class="b" d="M328.807,197.9c0,2.543.012,5.1-.012,7.645a1.138,1.138,0,0,0,.526,1.046,2.739,2.739,0,0,1,.949,3.192,2.831,2.831,0,0,1-2.712,1.807,2.765,2.765,0,0,1-2.609-2.163A2.629,2.629,0,0,1,326,206.584a1.146,1.146,0,0,0,.509-1.053c-.015-4.657,0-9.315-.024-13.973a1.621,1.621,0,0,1,.9-1.676c.22-.107.422-.251.636-.373.631-.359.778-.278.778.473C328.811,192.615,328.807,195.251,328.807,197.9Z" transform="translate(-276.718 -169.075)"/></g></g></svg>