<svg xmlns="http://www.w3.org/2000/svg" width="93" height="93" viewBox="0 0 93 93"><defs><style>.a{fill:#5476dd;}.b{fill:#fff;}</style></defs><g transform="translate(-128 -2891)"><g transform="translate(-209 182)"><circle class="a" cx="46.5" cy="46.5" r="46.5" transform="translate(337 2709)"/></g><g transform="translate(141 2879.164)"><path class="b" d="M8,383.75a2.363,2.363,0,0,0,1.127,1.127H8Z" transform="translate(0 -302.118)"/><path class="b" d="M22.75,236.836V220.76h8.605v4.177a1.4,1.4,0,0,0,1.479,1.493c1.844.011,3.688.027,5.532-.016a1.677,1.677,0,0,0,1.079-.455,1.8,1.8,0,0,0,.4-1.1c.046-1.35.018-2.7.018-4.065H54.052v4.088a1.425,1.425,0,0,0,1.564,1.553q2.694.011,5.39,0a1.426,1.426,0,0,0,1.553-1.564c.007-1.214,0-2.427,0-3.642v-.433h8.605v.346q0,7.54-.007,15.083A4.644,4.644,0,0,1,71,237.434a4.224,4.224,0,0,1-4.316,3.191H48.815c-.137,0-.273-.016-.443-.026V228.237a4.719,4.719,0,0,0-.012-.52,1.412,1.412,0,0,0-2.812,0,4.691,4.691,0,0,0-.011.519v12.351a1.177,1.177,0,0,1-.161.031c-6.13,0-12.262.012-18.392-.007a3.909,3.909,0,0,1-3.379-1.758A11.324,11.324,0,0,1,22.75,236.836Z" transform="translate(-12.735 -161.391)"/><path class="b" d="M22.75,56.533v-10.4a8.646,8.646,0,0,1,.43-1.339,4.194,4.194,0,0,1,4-2.441c2.252-.015,4.508,0,6.76,0,.273,0,.41-.045.462-.363a8.711,8.711,0,0,1,5.816-7.022,16.224,16.224,0,0,1,5.249-1.079,19,19,0,0,1,8.444,1.162A8.677,8.677,0,0,1,59.1,40.28c.234.661.366,1.356.553,2.065h.51c2.16,0,4.319-.01,6.477,0a5.173,5.173,0,0,1,1.354.16,4.192,4.192,0,0,1,3.18,4.224c.014,3.153,0,6.3,0,9.455,0,.105-.02.209-.034.34ZM37.185,42.327H56.731c-.031-.175-.051-.328-.086-.475a6,6,0,0,0-4.314-4.412,18.65,18.65,0,0,0-9.2-.41,8.236,8.236,0,0,0-3.975,1.742A5.628,5.628,0,0,0,37.185,42.327Z" transform="translate(-12.735 0)"/><path class="b" d="M106.79,220.89h2.773v2.795H106.79Z" transform="translate(-85.296 -161.503)"/><path class="b" d="M273,220.88h2.77v2.8H273Z" transform="translate(-228.802 -161.495)"/></g></g></svg>