<svg xmlns="http://www.w3.org/2000/svg" width="93" height="93" viewBox="0 0 93 93"><defs><style>.a{fill:#9d9d9d;}.b{fill:#fff;}</style></defs><g transform="translate(-140 -2731)"><g transform="translate(-197 22)"><circle class="a" cx="46.5" cy="46.5" r="46.5" transform="translate(337 2709)"/><g transform="translate(351 2723.104)"><path class="b" d="M8,337.812a1.787,1.787,0,0,1,1.92-1.06c1.089.05,2.182.011,3.314.011v-2.393c.762-.051,1.487-.105,2.211-.147a38.58,38.58,0,0,0,7.927-1.5A17.885,17.885,0,0,1,27.917,332a4.274,4.274,0,0,1,4.391,3.459c.013.053.037.1.093.254.052-.2.079-.3.1-.4A4.3,4.3,0,0,1,36.731,332a17.6,17.6,0,0,1,4.779.748,38.572,38.572,0,0,0,9.547,1.581c.141,0,.283.028.466.047v2.389h.493c.952,0,1.906.038,2.856-.011a1.775,1.775,0,0,1,1.919,1.06v.762a2.2,2.2,0,0,1-1.048,1.048H9.048A2.2,2.2,0,0,1,8,338.574Z" transform="translate(0 -282.831)"/><path class="b" d="M147.146,8a1.816,1.816,0,0,1,1.063,1.92,12.662,12.662,0,0,1-.5,4.088,5.136,5.136,0,0,1-4.912,3.625c-5.859.032-11.717.014-17.576.014-.076,0-.154-.013-.283-.025,0-.8-.019-1.592,0-2.38a14.18,14.18,0,0,1,.17-2.8,5.52,5.52,0,0,1,4.574-4.363A1.26,1.26,0,0,0,129.9,8Z" transform="translate(-102.076 0)"/><path class="b" d="M8,383.75A2.2,2.2,0,0,0,9.048,384.8H8Z" transform="translate(0 -328.007)"/><path class="b" d="M383.75,384.8a2.2,2.2,0,0,0,1.048-1.048V384.8Z" transform="translate(-328.007 -328.007)"/><path class="b" d="M99.727,239.388c-1.779-.335-3.474-.635-5.161-.983-1.813-.381-3.6-.889-5.425-1.208a8.077,8.077,0,0,0-5.885.889,1.419,1.419,0,0,1-.522.254,23.93,23.93,0,0,0-2.757-1.094,10.7,10.7,0,0,0-5,.146c-1.985.418-3.939.972-5.922,1.4-1.109.24-2.248.349-3.453.53v-5.983a5.657,5.657,0,0,1,4.053-5.489L74,226.49c1.548,4.32,4.486,6.805,9.141,6.607,4.215-.183,6.842-2.648,8.2-6.607.925.285,1.86.569,2.8.86.544.17,1.086.349,1.63.522a5.65,5.65,0,0,1,3.99,5.39c.009,1.841,0,3.685,0,5.525C99.754,238.923,99.741,239.063,99.727,239.388Z" transform="translate(-50.281 -190.729)"/><path class="b" d="M143.684,106.74c-.052,2.123.187,4.222-.551,6.259a9.522,9.522,0,0,1-18.373-1.7c-.211-1.484-.127-3.008-.189-4.553Z" transform="translate(-101.759 -86.194)"/><path class="b" d="M153.59,216.7a12.47,12.47,0,0,0,11.742.033c.313,1.976-2.577,4.72-5.231,4.982C156.946,222.024,153.681,219.533,153.59,216.7Z" transform="translate(-127.091 -182.183)"/></g></g></g></svg>