<svg xmlns="http://www.w3.org/2000/svg" width="80" height="79.954" viewBox="0 0 80 79.954"><defs><style>.a{fill:#fff;}</style></defs><g transform="translate(0)"><path class="a" d="M10.55,48.3c.2-1.512.352-3.034.614-4.537a39.223,39.223,0,0,1,13.042-23.2,38.2,38.2,0,0,1,20.827-9.516c12.4-1.565,23.347,1.788,32.606,10.223a38.856,38.856,0,0,1,12.193,21.9A40.021,40.021,0,0,1,60.1,89.46c-2.14.513-4.357.695-6.539,1.033-.229.035-.454.09-.681.135H48.2c-1.055-.127-2.113-.233-3.164-.382A40.031,40.031,0,0,1,11.164,57.519c-.262-1.5-.413-3.025-.614-4.539Zm3.13,2.379a26.338,26.338,0,1,0-.006-.008Z" transform="translate(-10.55 -10.674)"/><path class="a" d="M158.881,131.479a5.505,5.505,0,0,1,3.522-3.522V115.216c0-1.37.54-2.093,1.544-2.107s1.579.73,1.579,2.072v12.776a5.436,5.436,0,0,1,3.238,2.856,5.167,5.167,0,0,1,.4,3.2,5.308,5.308,0,0,1-4.652,4.294c-2.395.292-4.463-1.049-5.66-3.7-1.849,0-3.717.018-5.592,0a1.536,1.536,0,0,1-1.661-1.915,1.575,1.575,0,0,1,1.761-1.2C155.183,131.463,157,131.479,158.881,131.479ZM166.136,133a4.054,4.054,0,1,1,0-.01Z" transform="translate(-123.968 -93.068)"/><path class="a" d="M46.459,71.529c.186-.712.391-1.681.689-2.616A33.319,33.319,0,0,1,65.83,47.9a51.73,51.73,0,0,1,6.732-2.166c1.174-.344,1.99.1,2.238,1.051s-.333,1.708-1.506,1.956A30.668,30.668,0,0,0,49.758,71.2a12.326,12.326,0,0,1-.34,1.2,1.551,1.551,0,0,1-1.669,1A1.671,1.671,0,0,1,46.459,71.529Z" transform="translate(-39.434 -38.78)"/><path class="a" d="M240.028,269.981a1.572,1.572,0,0,1-1.667-1.268,1.473,1.473,0,0,1,.961-1.681c.978-.319,2.013-.507,3.007-.808A29.839,29.839,0,0,0,261.274,250.2a52.732,52.732,0,0,0,2.322-6.513c.378-1.137,1.107-1.72,2.019-1.448a1.6,1.6,0,0,1,1.062,2.052A33.817,33.817,0,0,1,240.533,269.9C240.322,269.94,240.114,269.965,240.028,269.981Z" transform="translate(-193.768 -196.88)"/><path class="a" d="M45.676,239.864a1.526,1.526,0,0,1,1.258-1.549,1.485,1.485,0,0,1,1.7,1.045c.342,1.117.56,2.271.914,3.383A30.081,30.081,0,0,0,65.722,261.4c.374.182.759.338,1.129.526a1.588,1.588,0,0,1,.925,2.174,1.551,1.551,0,0,1-2.2.659,50.812,50.812,0,0,1-5.466-2.98,33.282,33.282,0,0,1-14.351-21.218c-.029-.127-.063-.254-.08-.382A2.781,2.781,0,0,1,45.676,239.864Z" transform="translate(-38.801 -193.756)"/><path class="a" d="M294.242,80.788a1.628,1.628,0,0,1-1.354,1.7,1.544,1.544,0,0,1-1.645-1.146c-.477-1.591-.814-3.228-1.389-4.782a30.146,30.146,0,0,0-15.591-17.15c-.327-.158-.665-.3-.978-.475a1.536,1.536,0,0,1-.765-2.1,1.5,1.5,0,0,1,2.127-.679,50.446,50.446,0,0,1,5.5,3.07,33.192,33.192,0,0,1,14,21C294.2,80.461,294.226,80.694,294.242,80.788Z" transform="translate(-221.126 -47.094)"/><path class="a" d="M206.861,351.779c0-.728-.022-1.454,0-2.18A1.518,1.518,0,0,1,208.333,348a1.469,1.469,0,0,1,1.6,1.448c.068,1.579.065,3.164,0,4.742a1.542,1.542,0,0,1-1.581,1.5,1.579,1.579,0,0,1-1.5-1.663C206.842,353.281,206.859,352.53,206.861,351.779Z" transform="translate(-168.444 -282.002)"/><path class="a" d="M46.363,209.99c-.7,0-1.407.025-2.109,0a1.609,1.609,0,0,1-1.694-1.577,1.588,1.588,0,0,1,1.72-1.534q2.107-.029,4.216,0a1.58,1.58,0,0,1,1.692,1.481,1.607,1.607,0,0,1-1.64,1.626c-.728.039-1.458,0-2.185,0Z" transform="translate(-36.297 -168.481)"/><path class="a" d="M353.6,210.189c-.675,0-1.354.02-2.029,0a1.57,1.57,0,0,1-1.62-1.473,1.5,1.5,0,0,1,1.4-1.589c1.5-.072,3.017-.072,4.521,0a1.491,1.491,0,0,1,1.387,1.6,1.583,1.583,0,0,1-1.553,1.462h-2.113Z" transform="translate(-283.543 -168.648)"/><path class="a" d="M210.238,45.856c0,.6.033,1.2,0,1.792a1.491,1.491,0,0,1-1.448,1.454,1.4,1.4,0,0,1-1.575-1.289,29.421,29.421,0,0,1,0-3.962,1.473,1.473,0,0,1,1.565-1.325,1.588,1.588,0,0,1,1.475,1.538v1.792Z" transform="translate(-168.685 -36.292)"/><path class="a" d="M173,370.744a1.565,1.565,0,0,1-1.585-1.579,1.534,1.534,0,0,1,1.546-1.526,1.606,1.606,0,0,1,1.632,1.626A1.54,1.54,0,0,1,173,370.744Z" transform="translate(-139.946 -297.8)"/><path class="a" d="M243.832,46.435a1.506,1.506,0,0,1,1.565,1.5,1.565,1.565,0,0,1-1.565,1.595,1.612,1.612,0,0,1-1.532-1.565,1.52,1.52,0,0,1,1.532-1.528Z" transform="translate(-196.959 -39.438)"/></g></svg>