<svg xmlns="http://www.w3.org/2000/svg" width="67.264" height="81.181" viewBox="0 0 67.264 81.181"><defs><style>.a{fill:#fff;}</style></defs><g transform="translate(0)"><path class="a" d="M49.643,91.743a12.372,12.372,0,0,1-1.856-.844,4.664,4.664,0,0,1-2.107-4.118V44.927c0-1.08.4-1.692,1.213-1.88a1.487,1.487,0,0,1,1.85,1.06,4.193,4.193,0,0,1,.1,1.1v41.06c0,1.835.469,2.307,2.293,2.309h56.294c1.837,0,2.309-.471,2.309-2.293V16.047c0-1.838-.469-2.311-2.289-2.311H76.771a5.771,5.771,0,0,1-.87-.032,1.564,1.564,0,0,1,.024-3.111,5,5,0,0,1,.711-.026h31.08a4.809,4.809,0,0,1,5.192,5.19V86.545c0,2.7-.979,3.971-3.971,5.2Z" transform="translate(-45.643 -10.565)"/><path class="a" d="M117.271,74.986A43.883,43.883,0,0,1,121,71.027a38.931,38.931,0,0,1,4.35-2.831,18.446,18.446,0,0,1-1.694-3.631c-.866-3.621-.23-7.191,2.726-9.55a7.733,7.733,0,0,1,12.039,3.645,9.747,9.747,0,0,1-.733,8.1c-.292.494-.679.933-1.1,1.5A16.212,16.212,0,0,1,144.8,75.15a16.744,16.744,0,0,0,3.129-5.339A17.873,17.873,0,0,0,134.7,46.13a35.045,35.045,0,0,0-5.511-.268c-.316-.012-.633.05-.951.05a1.558,1.558,0,0,1-1.664-1.362,1.519,1.519,0,0,1,1.3-1.707,20.683,20.683,0,0,1,3.151-.272,21.065,21.065,0,1,1-20.646,24.943,1.651,1.651,0,0,1,1.124-2.128c.993-.228,1.773.343,1.985,1.525a17.8,17.8,0,0,0,3.574,7.844C117.167,74.876,117.272,74.99,117.271,74.986Zm2.514,2.468c6.472,5.613,16.743,5.285,22.648-.056-2.5-4.475-6.288-6.933-11.422-6.893C125.941,70.544,122.216,73.018,119.784,77.453Zm15.927-15.5c0-.326.012-.615,0-.905a4.592,4.592,0,0,0-9.181-.032,14.813,14.813,0,0,0,.02,2.057A4.566,4.566,0,0,0,133.5,66.6a4.688,4.688,0,0,0,2.212-4.644Z" transform="translate(-97.465 -36.215)"/><path class="a" d="M58.672,36.575A13,13,0,1,1,71.727,23.634,13.042,13.042,0,0,1,58.672,36.575Zm.046-22.832a7.09,7.09,0,1,1,0,.006Z" transform="translate(-45.666 -10.575)"/><path class="a" d="M180.228,286.885H169.683a6.558,6.558,0,0,1-.713-.014,1.569,1.569,0,0,1,.036-3.137,3.772,3.772,0,0,1,.4-.01H191.52a1.565,1.565,0,0,1,1.574,1.557,1.531,1.531,0,0,1-1.61,1.588c-1.161.038-2.325.012-3.488.012Z" transform="translate(-143.244 -229.49)"/><path class="a" d="M180.3,331.569h-10.7a4.745,4.745,0,0,1-.794-.036,1.562,1.562,0,0,1,.03-3.1,4.978,4.978,0,0,1,.794-.03H191.5a1.563,1.563,0,0,1,1.576,1.555,1.547,1.547,0,0,1-1.608,1.6c-.764.036-1.533.01-2.3.01Z" transform="translate(-143.23 -265.295)"/><path class="a" d="M134.8,286.889a1.574,1.574,0,1,1,1.588-1.549A1.6,1.6,0,0,1,134.8,286.889Z" transform="translate(-115.82 -229.504)"/><path class="a" d="M134.89,331.6a1.575,1.575,0,1,1,1.554-1.6A1.575,1.575,0,0,1,134.89,331.6Z" transform="translate(-115.862 -265.336)"/><path class="a" d="M47.145,143.993a1.572,1.572,0,1,1-1.415.747A1.572,1.572,0,0,1,47.145,143.993Z" transform="translate(-45.496 -117.5)"/><path class="a" d="M84.3,59.994c1.588-1.6,3.125-3.131,4.658-4.656a5.93,5.93,0,0,1,.766-.683,1.531,1.531,0,0,1,1.964.141,1.563,1.563,0,0,1,.2,2.023,4.324,4.324,0,0,1-.514.6l-5.559,5.559c-1.112,1.108-1.86,1.108-2.978,0-.794-.782-1.588-1.559-2.353-2.357a1.587,1.587,0,1,1,2.222-2.23C83.248,58.884,83.746,59.422,84.3,59.994Z" transform="translate(-73.044 -45.668)"/></g></svg>