<svg xmlns="http://www.w3.org/2000/svg" width="74.041" height="74.041" viewBox="0 0 74.041 74.041"><defs><style>.a{fill:#fff;}</style></defs><g transform="translate(0)"><path class="a" d="M10.54,57.018c.13-.335.234-.683.395-1a3.978,3.978,0,0,1,3.779-2.32c2.6-.016,5.2,0,7.806,0H44.069a3.674,3.674,0,0,1,1,.107,1.4,1.4,0,0,1,.014,2.664,3.9,3.9,0,0,1-1.068.112H15.172c-1.427,0-1.733.308-1.733,1.738V92.4h4.909V91.311a16.952,16.952,0,0,1,.543-5.795,10.627,10.627,0,0,1,8.431-7.258c.114-.022.225-.063.409-.116-.255-.42-.5-.791-.713-1.181a7.69,7.69,0,0,1-.905-3.754c0-1.686-.013-3.372,0-5.059a6.1,6.1,0,0,1,6.321-6.338c2.314-.02,4.627,0,6.939,0,1.286,0,1.811.522,1.811,1.787v9.613a7.906,7.906,0,0,1-1.657,4.934l.878.181A10.818,10.818,0,0,1,48.95,88.564c.034,1.268,0,2.535,0,3.852H73.867V86.391c0-1.052.576-1.727,1.436-1.733s1.449.67,1.449,1.717c0,4.675.014,9.349,0,14.023a4.015,4.015,0,0,1-4.257,4.2q-10.408.016-20.824,0h-.905v6.474a24.146,24.146,0,0,1,3.227,1.449,6.887,6.887,0,0,1,3.218,5.82,1.455,1.455,0,0,1-1.449,1.575c-.192.016-.386,0-.578,0H32.076c-1.63,0-2.151-.6-1.938-2.244a7.161,7.161,0,0,1,5.867-6.307c.21-.045.529-.31.532-.476.036-2.068.024-4.136.024-6.3H15.581c-2.988,0-3.893-.6-5.041-3.325Zm2.9,38.338v4.527c0,1.519.286,1.811,1.811,1.811H72.04a5.792,5.792,0,0,0,.793-.02,1.028,1.028,0,0,0,1-.978c.04-1.771.014-3.544.014-5.34Zm7.8-2.966H46.1c0-1.249.045-2.454,0-3.652a7.9,7.9,0,0,0-6.117-7.549.992.992,0,0,0-1.076.317c-1.289,1.331-2.609,2.633-3.926,3.938a1.562,1.562,0,0,1-2.6,0c-1.333-1.324-2.649-2.665-4-3.971a1.028,1.028,0,0,0-.786-.292,7.63,7.63,0,0,0-5.938,5.3c-.659,1.918-.349,3.9-.424,5.912ZM47.81,104.629h-8.3v6.6h8.3ZM54.035,117a4.174,4.174,0,0,0-3.937-2.863c-1.876-.031-3.756-.013-5.633-.013-2.432,0-4.864-.02-7.3.015-1.843.025-3.622,1.374-3.842,2.866ZM29.046,72.017c0,.628-.033,1.2,0,1.776a4.642,4.642,0,0,0,6.644,3.8c2.1-1.058,3.033-3.238,2.548-5.947-3.01.654-6.066.125-9.19.373Zm.047-2.97c2.486,0,4.936.025,7.383-.014a1.759,1.759,0,0,0,1.738-1.469,22.977,22.977,0,0,0,.027-2.876H32.733C30.053,64.692,28.717,66.262,29.093,69.047Zm3.1,11.978L33.66,82.5l1.449-1.472Z" transform="translate(-10.54 -45.878)"/><path class="a" d="M253.42,10.557a9.463,9.463,0,0,1,3.661,1.747,6.878,6.878,0,0,1,2.524,5.163q.1,8.06,0,16.116a7.188,7.188,0,0,1-7.1,6.89c-4.6.04-9.2.02-13.8,0a1.572,1.572,0,0,0-1.259.518c-1.289,1.335-2.622,2.626-3.924,3.948a1.528,1.528,0,0,1-2.771-1.161c0-.916-.014-1.831,0-2.747.011-.427-.1-.619-.567-.724a7.112,7.112,0,0,1-5.825-7.091q-.071-7.806,0-15.611a7.242,7.242,0,0,1,5.813-6.912,3.04,3.04,0,0,0,.389-.143ZM233.651,40.466l.181.129c.7-.724,1.414-1.423,2.088-2.173a2.541,2.541,0,0,1,2.048-.847q7.116.038,14.233,0a4.291,4.291,0,0,0,4.527-4.346q.06-7.73,0-15.462a4.241,4.241,0,0,0-4.319-4.321q-10.4-.054-20.81,0a4.241,4.241,0,0,0-4.335,4.3c-.043,5.179-.027,10.356,0,15.535a4.142,4.142,0,0,0,1.852,3.5,4.773,4.773,0,0,0,2.87.8,1.471,1.471,0,0,1,1.659,1.644C233.66,39.653,233.651,40.06,233.651,40.466Z" transform="translate(-185.613 -10.55)"/><path class="a" d="M363.18,196.149a1.436,1.436,0,1,1-1.465-1.364A1.436,1.436,0,0,1,363.18,196.149Z" transform="translate(-296.974 -161.424)"/><path class="a" d="M188.33,294.752a1.434,1.434,0,1,1-1.405-1.463A1.485,1.485,0,0,1,188.33,294.752Z" transform="translate(-153.787 -242.09)"/><path class="a" d="M277.586,83.228c2.7,0,5.4-.011,8.1,0A1.445,1.445,0,0,1,287.2,85.22a1.59,1.59,0,0,1-1.668.889h-9.253c-2.312,0-4.625.013-6.939,0-1.231,0-1.968-1-1.521-1.992a1.549,1.549,0,0,1,1.6-.889Q273.5,83.235,277.586,83.228Z" transform="translate(-221.127 -70.064)"/><path class="a" d="M277.586,118.358c2.7,0,5.4-.011,8.1,0a1.45,1.45,0,0,1,1.523,2,1.586,1.586,0,0,1-1.668.887q-4.627-.011-9.253,0c-2.312,0-4.625.013-6.939,0-1.231,0-1.968-1-1.521-1.992a1.549,1.549,0,0,1,1.6-.889Q273.5,118.365,277.586,118.358Z" transform="translate(-221.127 -98.832)"/><path class="a" d="M307.337,48.109H312.4c1.061,0,1.731.558,1.753,1.416S313.481,51,312.382,51H302.191c-1.067,0-1.733-.554-1.753-1.414s.672-1.469,1.767-1.474C303.917,48.1,305.628,48.109,307.337,48.109Z" transform="translate(-247.943 -41.306)"/><path class="a" d="M270.568,49.6a1.451,1.451,0,1,1,0-.007Z" transform="translate(-221.133 -41.341)"/></g></svg>