<svg xmlns="http://www.w3.org/2000/svg" width="68.818" height="81.181" viewBox="0 0 68.818 81.181"><defs><style>.a{fill:#fff;}</style></defs><g transform="translate(0)"><path class="a" d="M93.881,10.584a12.406,12.406,0,0,1,1.916.894,4.733,4.733,0,0,1,2.041,4.154V74.047A4.761,4.761,0,0,1,92.8,79.069q-23.033.016-46.049,0a4.75,4.75,0,0,1-5.028-5.024q-.018-14.386,0-28.772a2.945,2.945,0,0,1,.127-.933,1.43,1.43,0,0,1,1.455-1.011,1.407,1.407,0,0,1,1.444,1.025,4.041,4.041,0,0,1,.135,1.17V73.662c0,1.763.484,2.242,2.274,2.242H92.417c1.761,0,2.25-.5,2.25-2.276V16.007c0-1.761-.494-2.252-2.272-2.252H47.133c-1.765,0-2.246.483-2.246,2.27v15.3a1.6,1.6,0,1,1-3.169-.018V15.848A4.754,4.754,0,0,1,45.491,10.7a1.074,1.074,0,0,0,.2-.119Z" transform="translate(-41.715 -10.58)"/><path class="a" d="M161.814,107.407v30.279c0,3.477-1.91,5.379-5.4,5.379H107.986a5.033,5.033,0,0,1-1.025-.066,1.545,1.545,0,0,1,.022-3.04,5.164,5.164,0,0,1,1.025-.062H156.28c1.932,0,2.363-.437,2.363-2.383V76.953a5.163,5.163,0,0,1,.1-1.176,1.533,1.533,0,0,1,1.5-1.177,1.569,1.569,0,0,1,1.515,1.271,5.506,5.506,0,0,1,.054,1.025Q161.818,92.153,161.814,107.407Z" transform="translate(-92.998 -61.888)"/><path class="a" d="M155.441,75.5v30.281c0,3.433-1.916,5.361-5.339,5.361H107.456a1.594,1.594,0,1,1-.026-3.167h42.489c1.9,0,2.351-.451,2.351-2.323V45.008a5.064,5.064,0,0,1,.093-1.177,1.543,1.543,0,0,1,1.517-1.162,1.561,1.561,0,0,1,1.477,1.217,4.739,4.739,0,0,1,.075,1.023Q155.443,60.209,155.441,75.5Z" transform="translate(-92.97 -36.297)"/><path class="a" d="M104.821,78.894v7.134c0,1.5-.56,2.059-2.065,2.061H88.487c-1.509,0-2.055-.548-2.057-2.061V71.761c0-1.513.548-2.061,2.057-2.061h14.267c1.505,0,2.063.556,2.065,2.061C104.825,74.128,104.821,76.511,104.821,78.894Zm-15.2,5.957h11.977V72.937H89.617Z" transform="translate(-77.551 -57.961)"/><path class="a" d="M185.911,209.4h8.951c1.144,0,1.825.564,1.872,1.5a1.549,1.549,0,0,1-1.555,1.652c-.657.042-1.318.014-1.986.014H177.439c-.238,0-.477.01-.713,0a1.606,1.606,0,0,1-1.608-1.616,1.575,1.575,0,0,1,1.606-1.533c1.451-.038,2.9-.012,4.356-.014Z" transform="translate(-148.628 -169.918)"/><path class="a" d="M185.852,273.261c-2.957,0-5.915.028-8.872-.026a2.49,2.49,0,0,1-1.545-.586,1.476,1.476,0,0,1,.651-2.432,2.674,2.674,0,0,1,.854-.121q8.912-.012,17.821,0c1.154,0,1.831.548,1.888,1.483.064,1.009-.651,1.676-1.849,1.68C191.819,273.269,188.835,273.261,185.852,273.261Z" transform="translate(-148.547 -218.561)"/><path class="a" d="M93.963,201.076c1.346-1.35,2.581-2.581,3.806-3.812a5.043,5.043,0,0,1,.711-.625,1.567,1.567,0,0,1,1.966.179,1.537,1.537,0,0,1,.187,1.956,7.742,7.742,0,0,1-.9.993q-2.123,2.143-4.257,4.263c-1.1,1.1-1.851,1.09-2.978-.02-.9-.894-1.809-1.787-2.679-2.7a1.5,1.5,0,0,1-.254-1.894,1.415,1.415,0,0,1,1.692-.735,2.653,2.653,0,0,1,1.048.657C92.861,199.857,93.362,200.438,93.963,201.076Z" transform="translate(-79.884 -159.481)"/><path class="a" d="M94.092,261.981c1.313-1.318,2.556-2.581,3.8-3.816a4.6,4.6,0,0,1,.719-.616,1.5,1.5,0,0,1,1.894.175,1.539,1.539,0,0,1,.24,1.95,3.662,3.662,0,0,1-.5.6q-2.351,2.359-4.706,4.71c-1.038,1.031-1.829,1.036-2.855.022-.866-.854-1.729-1.71-2.581-2.581a1.64,1.64,0,0,1-.171-2.448,1.588,1.588,0,0,1,2.383.2C92.908,260.75,93.466,261.344,94.092,261.981Z" transform="translate(-79.979 -208.303)"/><path class="a" d="M214.98,69.647c1.8,0,3.594-.024,5.389,0a1.575,1.575,0,1,1,.073,3.143c-3.646,0-7.291.02-10.937,0a1.575,1.575,0,1,1,.008-3.147C211.335,69.627,213.158,69.649,214.98,69.647Z" transform="translate(-174.87 -57.91)"/><path class="a" d="M214.986,107.954c1.787,0,3.592-.026,5.389,0a1.581,1.581,0,1,1,.06,3.155c-3.646,0-7.291.018-10.937,0a1.578,1.578,0,1,1,.02-3.153C211.341,107.938,213.164,107.954,214.986,107.954Z" transform="translate(-174.87 -88.61)"/><path class="a" d="M214.92,149.5h-5.151c-1.164,0-1.894-.614-1.91-1.559s.731-1.6,1.94-1.606q5.192-.012,10.383,0c1.158,0,1.9.62,1.918,1.559s-.745,1.6-1.948,1.606C218.411,149.507,216.663,149.5,214.92,149.5Z" transform="translate(-174.869 -119.375)"/><path class="a" d="M44.9,145.4a1.575,1.575,0,1,1-3.149-.024,1.573,1.573,0,0,1,3.145.024Z" transform="translate(-41.743 -117.363)"/><path class="a" d="M76.886,373.157A1.573,1.573,0,1,1,75.3,371.6,1.626,1.626,0,0,1,76.886,373.157Z" transform="translate(-67.382 -299.914)"/></g></svg>