<svg xmlns="http://www.w3.org/2000/svg" width="58.879" height="57.137" viewBox="0 0 58.879 57.137"><defs><style>.a{fill:#fff;}</style></defs><path class="a" d="M8,383.75a2.758,2.758,0,0,0,1.315,1.315H8Z" transform="translate(-8 -327.929)"/><path class="a" d="M22.75,239.526V220.76H32.794v4.876a1.637,1.637,0,0,0,1.727,1.743c2.152.013,4.3.032,6.457-.019a1.958,1.958,0,0,0,1.26-.531,2.1,2.1,0,0,0,.466-1.288c.054-1.575.021-3.154.021-4.745H59.286v4.772a1.664,1.664,0,0,0,1.826,1.813q3.144.013,6.291,0a1.664,1.664,0,0,0,1.813-1.826c.008-1.417,0-2.833,0-4.251V220.8H79.26v.4q0,8.8-.008,17.6a5.421,5.421,0,0,1-.18,1.416,4.93,4.93,0,0,1-5.038,3.724H53.173c-.159,0-.319-.019-.517-.03V229.488a5.506,5.506,0,0,0-.014-.607,1.649,1.649,0,0,0-3.283,0,5.474,5.474,0,0,0-.013.606V243.9a1.374,1.374,0,0,1-.188.037c-7.155,0-14.313.014-21.468-.008a4.563,4.563,0,0,1-3.944-2.052,13.219,13.219,0,0,1-1-2.353Z" transform="translate(-20.398 -190.925)"/><path class="a" d="M22.75,60.319V48.176a10.091,10.091,0,0,1,.5-1.562,4.895,4.895,0,0,1,4.664-2.85c2.631-.018,5.261,0,7.892,0,.319,0,.478-.053.539-.424a10.168,10.168,0,0,1,6.789-8.2,18.937,18.937,0,0,1,6.127-1.26,22.176,22.176,0,0,1,9.856,1.355,10.124,10.124,0,0,1,6.059,6.108c.273.772.427,1.583.646,2.411h.595c2.521,0,5.041-.011,7.56,0a6.038,6.038,0,0,1,1.58.187,4.893,4.893,0,0,1,3.712,4.93c.016,3.68,0,7.358,0,11.036,0,.123-.024.244-.04.4ZM39.6,43.738H62.41c-.037-.2-.059-.383-.1-.558a7,7,0,0,0-5.035-5.15,21.768,21.768,0,0,0-10.735-.478,9.614,9.614,0,0,0-4.64,2.033,6.57,6.57,0,0,0-2.3,4.154Z" transform="translate(-20.398 -33.794)"/><path class="a" d="M106.79,220.89h3.237v3.262H106.79Z" transform="translate(-91.039 -191.034)"/><path class="a" d="M273,220.88h3.233v3.264H273Z" transform="translate(-230.75 -191.026)"/></svg>