<svg xmlns="http://www.w3.org/2000/svg" width="53.853" height="53.797" viewBox="0 0 53.853 53.797"><defs><style>.a{fill:#fff;}</style></defs><path class="a" d="M8,383.75A2.426,2.426,0,0,0,9.157,384.9H8Z" transform="translate(-8 -331.107)"/><path class="a" d="M383.75,384.9a2.426,2.426,0,0,0,1.157-1.157V384.9Z" transform="translate(-331.054 -331.106)"/><path class="a" d="M45.113,8.37a2.486,2.486,0,0,1-.3.348,26.078,26.078,0,0,0-9.029,15.251c-.336,1.583-.452,3.213-.667,4.822-.027.206-.044.412-.064.627H25.72a21.134,21.134,0,0,1,1.6-6.886A22.852,22.852,0,0,1,43.289,8.757c.534-.14,1.074-.258,1.613-.387Z" transform="translate(-23.235 -8.37)"/><path class="a" d="M190.33,301.067c1.253.709,2.494,1.4,3.721,2.12a.58.58,0,0,1,.2.421c.022.612,0,1.225.014,1.835a1.608,1.608,0,0,0,1.648,1.719,1.629,1.629,0,0,0,1.675-1.7c.018-.364,0-.731,0-1.177a31.526,31.526,0,0,0,11.5-.05c0,.454-.011.869,0,1.284a1.59,1.59,0,0,0,1.506,1.642,1.568,1.568,0,0,0,1.773-1.4c.088-.724.035-1.464.072-2.2a.651.651,0,0,1,.208-.468c1.142-.691,2.3-1.356,3.457-2.029,0,.051.017.2.017.345v10.911c0,1.06-.39,1.446-1.46,1.446H191.8c-1.07,0-1.464-.386-1.466-1.443Z" transform="translate(-164.76 -260.013)"/><path class="a" d="M219,9.35c10.841,1.59,18.1,10.2,18.792,20.906h-8.954c-.219-1.28-.4-2.559-.658-3.824a30.955,30.955,0,0,0-6.111-13.855C221.122,11.422,220.007,10.4,219,9.35Z" transform="translate(-189.409 -9.212)"/><path class="a" d="M25.78,182.72h9.339a30.2,30.2,0,0,0,2.819,11.564,28.072,28.072,0,0,0,7.309,9.416A23.216,23.216,0,0,1,25.78,182.72Z" transform="translate(-23.286 -158.269)"/><path class="a" d="M201.67,27.24a17.837,17.837,0,0,1,4.19,4.557,30.16,30.16,0,0,1,4.173,10.895c.188.954.331,1.924.5,2.942H201.67Z" transform="translate(-174.509 -24.593)"/><path class="a" d="M124.893,47.254H116.35a26.72,26.72,0,0,1,2.318-10.061,21.994,21.994,0,0,1,6.225-8.084Z" transform="translate(-101.155 -26.201)"/><path class="a" d="M218.886,266.82a5.906,5.906,0,0,1-1.67,2.155,12.836,12.836,0,0,1-5.835,2.579,22.159,22.159,0,0,1-12.191-.767,9.108,9.108,0,0,1-4.1-2.724c-.294-.362-.529-.773-.841-1.242Z" transform="translate(-168.131 -230.574)"/><path class="a" d="M124.851,191.214a1.787,1.787,0,0,0-1.521,2.039v6.075a24.724,24.724,0,0,1-7.042-16.469h8.563Z" transform="translate(-101.103 -158.389)"/><path class="a" d="M205.734,191.165H201.66V182.8h9.183c.044.821.086,1.616.13,2.482-.922,0-1.794.042-2.665-.009-1.862-.112-2.632.531-2.524,2.511.062,1.08,0,2.167,0,3.249C205.791,191.066,205.767,191.1,205.734,191.165Z" transform="translate(-174.501 -158.338)"/><path class="a" d="M297.769,191.175h-1.24v-1.683c0-.841.01-1.683,0-2.515a1.629,1.629,0,0,0-1.642-1.683c-.994-.027-1.988-.01-2.986-.011h-.624c-.039-.841-.08-1.633-.118-2.474h8.7a26.985,26.985,0,0,1-2.091,8.365Z" transform="translate(-251.449 -158.346)"/><path class="a" d="M255.108,226.766c0-.716-.024-1.412.009-2.1.02-.435.388-.43.7-.43h5.61c.088,0,.206-.029.257.015.175.153.45.318.466.5.056.656.022,1.319.022,2.017Z" transform="translate(-220.446 -193.951)"/></svg>