<svg id="_001-data" data-name="001-data" xmlns="http://www.w3.org/2000/svg" width="55.09" height="55.031" viewBox="0 0 55.09 55.031">
  <path id="Path_1565" data-name="Path 1565" d="M36.4,134.556a.913.913,0,0,0,1.292-1.292l-2.218-2.218L37.7,128.83a.913.913,0,0,0-1.292-1.292L33.541,130.4a.913.913,0,0,0,0,1.292Zm0,0" transform="translate(-29.218 -113.88)" fill="#acacac"/>
  <path id="Path_1566" data-name="Path 1566" d="M115.416,131.043l-2.218,2.218a.913.913,0,1,0,1.292,1.292l2.864-2.864a.913.913,0,0,0,0-1.291l-2.864-2.864a.913.913,0,0,0-1.291,1.292Zm0,0" transform="translate(-100.911 -113.876)" fill="#acacac"/>
  <path id="Path_1567" data-name="Path 1567" d="M77,134.756a.913.913,0,0,0,1.184-.516l2.25-5.727a.913.913,0,1,0-1.7-.668l-2.25,5.727A.913.913,0,0,0,77,134.756Zm0,0" transform="translate(-67.103 -113.875)" fill="#acacac"/>
  <path id="Path_1568" data-name="Path 1568" d="M38.429,220.042h6.153a.913.913,0,0,0,0-1.827H38.429a.913.913,0,0,0,0,1.827Zm0,0" transform="translate(-32.943 -194.883)" fill="#acacac"/>
  <path id="Path_1569" data-name="Path 1569" d="M127.242,218.215H116.425a.913.913,0,0,0,0,1.827h10.817a.913.913,0,1,0,0-1.827Zm0,0" transform="translate(-103.502 -194.883)" fill="#acacac"/>
  <path id="Path_1570" data-name="Path 1570" d="M38.429,251.648H41.05a.913.913,0,0,0,0-1.827H38.429a.913.913,0,0,0,0,1.827Zm0,0" transform="translate(-32.943 -223.102)" fill="#acacac"/>
  <path id="Path_1571" data-name="Path 1571" d="M177.761,249.82a.913.913,0,0,0,0,1.827h1.6a.913.913,0,1,0,0-1.827Zm0,0" transform="translate(-157.966 -223.101)" fill="#acacac"/>
  <path id="Path_1572" data-name="Path 1572" d="M94.978,250.734a.913.913,0,0,0-.913-.913H86.225a.913.913,0,0,0,0,1.827h7.839A.913.913,0,0,0,94.978,250.734Zm0,0" transform="translate(-76.356 -223.102)" fill="#acacac"/>
  <path id="Path_1573" data-name="Path 1573" d="M213.7,250.734a.913.913,0,0,0,.913.914h2.989a.913.913,0,1,0,0-1.827h-2.989A.913.913,0,0,0,213.7,250.734Zm0,0" transform="translate(-190.964 -223.102)" fill="#acacac"/>
  <path id="Path_1574" data-name="Path 1574" d="M166.313,151.1h3.153a.913.913,0,1,0,0-1.827h-3.153a.913.913,0,1,0,0,1.827Zm0,0" transform="translate(-147.807 -133.334)" fill="#acacac"/>
  <path id="Path_1575" data-name="Path 1575" d="M221.16,151.1H240.4a.913.913,0,0,0,0-1.827H221.16a.913.913,0,1,0,0,1.827Zm0,0" transform="translate(-198.151 -133.334)" fill="#acacac"/>
  <path id="Path_1576" data-name="Path 1576" d="M298.89,182.246H291.1a.913.913,0,0,0,0,1.827h7.794a.913.913,0,0,0,0-1.827Zm0,0" transform="translate(-259.716 -162.769)" fill="#acacac"/>
  <path id="Path_1577" data-name="Path 1577" d="M247.819,182.246h-2.679a.913.913,0,0,0,0,1.827h2.679a.913.913,0,0,0,0-1.827Zm0,0" transform="translate(-218.219 -162.769)" fill="#acacac"/>
  <path id="Path_1578" data-name="Path 1578" d="M166.313,184.073h6.563a.913.913,0,0,0,0-1.827h-6.563a.913.913,0,1,0,0,1.827Zm0,0" transform="translate(-147.969 -162.769)" fill="#acacac"/>
  <path id="Path_1579" data-name="Path 1579" d="M106.312,281.16H100.16a.913.913,0,1,0,0,1.826h6.152a.913.913,0,1,0,0-1.826Zm0,0" transform="translate(-88.775 -251.082)" fill="#acacac"/>
  <path id="Path_1580" data-name="Path 1580" d="M43.156,281.16H38.429a.913.913,0,1,0,0,1.826h4.727a.913.913,0,1,0,0-1.826Zm0,0" transform="translate(-32.943 -251.082)" fill="#acacac"/>
  <path id="Path_1581" data-name="Path 1581" d="M184.24,281.16H176.2a.913.913,0,0,0,0,1.826h8.037a.913.913,0,1,0,0-1.826Zm0,0" transform="translate(-156.899 -251.082)" fill="#acacac"/>
  <path id="Path_1582" data-name="Path 1582" d="M299.655,242.668H295.26a.913.913,0,0,0,0,1.827h4.395a.913.913,0,0,0,0-1.827Zm0,0" transform="translate(-263.142 -216.716)" fill="#acacac"/>
  <path id="Path_1583" data-name="Path 1583" d="M393.89,244.495h6.2a.913.913,0,1,0,0-1.827h-6.2a.913.913,0,0,0,0,1.827Zm0,0" transform="translate(-352.393 -216.715)" fill="#acacac"/>
  <path id="Path_1584" data-name="Path 1584" d="M358.191,242.668h-1.422a.913.913,0,1,0,0,1.827h1.422a.913.913,0,0,0,0-1.827Zm0,0" transform="translate(-317.845 -216.716)" fill="#acacac"/>
  <path id="Path_1585" data-name="Path 1585" d="M295.261,326.155h4.395a.913.913,0,1,0,0-1.826h-4.395a.913.913,0,1,0,0,1.826Zm0,0" transform="translate(-263.142 -289.625)" fill="#acacac"/>
  <path id="Path_1586" data-name="Path 1586" d="M393.89,326.155h6.2a.913.913,0,1,0,0-1.826h-6.2a.913.913,0,0,0,0,1.826Zm0,0" transform="translate(-352.393 -289.625)" fill="#acacac"/>
  <path id="Path_1587" data-name="Path 1587" d="M356.773,326.155h1.422a.913.913,0,1,0,0-1.826h-1.422a.913.913,0,0,0,0,1.826Zm0,0" transform="translate(-317.849 -289.625)" fill="#acacac"/>
  <path id="Path_1588" data-name="Path 1588" d="M299.655,405.988H295.26a.913.913,0,1,0,0,1.826h4.395a.913.913,0,1,0,0-1.826Zm0,0" transform="translate(-263.142 -362.533)" fill="#acacac"/>
  <path id="Path_1589" data-name="Path 1589" d="M400.094,405.988h-6.2a.913.913,0,1,0,0,1.826h6.2a.913.913,0,1,0,0-1.826Zm0,0" transform="translate(-352.393 -362.533)" fill="#acacac"/>
  <path id="Path_1590" data-name="Path 1590" d="M358.191,405.988h-1.422a.913.913,0,1,0,0,1.826h1.422a.913.913,0,0,0,0-1.826Zm0,0" transform="translate(-317.845 -362.533)" fill="#acacac"/>
  <path id="Path_1591" data-name="Path 1591" d="M51.542.5H3.548A3.553,3.553,0,0,0,0,4.049V43.06a3.553,3.553,0,0,0,3.549,3.548H6.582a.806.806,0,1,0,0-1.612H3.548A1.938,1.938,0,0,1,1.612,43.06V40H30.986v1.39h-.639a1.587,1.587,0,0,0-1.586,1.586V45H11.484a.806.806,0,1,0,0,1.612h7.752V49.5H16.8a2.949,2.949,0,0,0-2.945,2.945v1.742A1.345,1.345,0,0,0,15.2,55.53H39.827a1.345,1.345,0,0,0,1.344-1.344V52.445A2.949,2.949,0,0,0,38.226,49.5H35.791V48.481H50.7a1.587,1.587,0,0,0,1.585-1.586v-.38a3.553,3.553,0,0,0,2.746-3.455l.061-39.012A3.552,3.552,0,0,0,51.542.5ZM30.374,38.082V34.217h20.3v3.865ZM32.6,32.6v-1.7H48.445v1.7Zm15.846,7.09v1.7H32.6v-1.7Zm-27.6,6.914h7.912V46.9a1.587,1.587,0,0,0,1.586,1.585h3.832V49.5H20.849Zm17.378,4.5a1.334,1.334,0,0,1,1.332,1.332v1.473H15.469V52.445A1.334,1.334,0,0,1,16.8,51.113ZM50.67,46.868h-20.3V43h20.3Zm2.746-3.808a1.936,1.936,0,0,1-1.134,1.759V42.976A1.587,1.587,0,0,0,50.7,41.391h-.639V40h3.359Zm0-4.671h-1.16c.016-.091.026-4.2.026-4.2A1.588,1.588,0,0,0,50.7,32.6h-.639v-1.7H50.7a1.588,1.588,0,0,0,1.586-1.586V25.4A1.588,1.588,0,0,0,50.7,23.818H46.143a.806.806,0,0,0,0,1.613H50.67V29.3h-20.3V25.431H41.126a.806.806,0,0,0,0-1.613H30.347A1.588,1.588,0,0,0,28.761,25.4v3.919a1.588,1.588,0,0,0,1.586,1.586h.639v1.7h-.639a1.588,1.588,0,0,0-1.586,1.586s.01,4.108.026,4.2H1.612V11.467h51.8Zm0-28.534H1.671V4.048A1.938,1.938,0,0,1,3.607,2.113H51.48a1.938,1.938,0,0,1,1.936,1.936Zm0,0" transform="translate(0 -0.5)" fill="#acacac"/>
  <path id="Path_1592" data-name="Path 1592" d="M35.953,29.262a2.68,2.68,0,1,0,2.68,2.68A2.683,2.683,0,0,0,35.953,29.262Zm0,3.534a.854.854,0,1,1,.854-.854A.855.855,0,0,1,35.953,32.8Zm0,0" transform="translate(-29.218 -25.756)" fill="#acacac"/>
  <path id="Path_1593" data-name="Path 1593" d="M91.938,29.262a2.68,2.68,0,1,0,2.68,2.68A2.683,2.683,0,0,0,91.938,29.262Zm0,3.534a.854.854,0,1,1,.854-.854A.854.854,0,0,1,91.938,32.8Zm0,0" transform="translate(-79.774 -25.756)" fill="#acacac"/>
  <path id="Path_1594" data-name="Path 1594" d="M147.926,29.262a2.68,2.68,0,1,0,2.68,2.68A2.683,2.683,0,0,0,147.926,29.262Zm0,3.534a.854.854,0,1,1,.854-.854A.855.855,0,0,1,147.926,32.8Zm0,0" transform="translate(-129.812 -25.756)" fill="#acacac"/>
</svg>
