<svg id="Group_6289" data-name="Group 6289" xmlns="http://www.w3.org/2000/svg" width="83.355" height="83.355" viewBox="0 0 83.355 83.355">
  <g id="Group_5789" data-name="Group 5789" transform="translate(0 0)">
    <g id="Group_5782" data-name="Group 5782" transform="translate(4.683 5.619)">
      <circle id="Ellipse_314" data-name="Ellipse 314" cx="36.527" cy="36.527" r="36.527" transform="translate(0 0)" fill="#c6057c"/>
    </g>
    <g id="Ellipse_324" data-name="Ellipse 324" transform="translate(0 0)" fill="none" stroke="#c6057c" stroke-width="1">
      <ellipse cx="41.678" cy="41.678" rx="41.678" ry="41.678" stroke="none"/>
      <ellipse cx="41.678" cy="41.678" rx="41.178" ry="41.178" fill="none"/>
    </g>
  </g>
  <g id="data" transform="translate(22.46 23.857)">
    <g id="Group_5765" data-name="Group 5765" transform="translate(0)">
      <path id="Path_7567" data-name="Path 7567" d="M37.744.5H2.6A2.6,2.6,0,0,0,0,3.1V31.666a2.6,2.6,0,0,0,2.6,2.6H4.821a.59.59,0,0,0,0-1.181H2.6a1.419,1.419,0,0,1-1.418-1.418v-2.24h21.51v1.018h-.468a1.162,1.162,0,0,0-1.161,1.161v1.479H8.41a.59.59,0,0,0,0,1.181h5.677v2.118H12.3a2.159,2.159,0,0,0-2.157,2.157v1.275a.985.985,0,0,0,.984.984H29.165a.985.985,0,0,0,.984-.984V38.539a2.159,2.159,0,0,0-2.157-2.157H26.21v-.746H37.125a1.162,1.162,0,0,0,1.161-1.161V34.2a2.6,2.6,0,0,0,2.011-2.53L40.342,3.1A2.6,2.6,0,0,0,37.744.5Zm-15.5,27.521v-2.83H37.105v2.83Zm1.629-4.011V22.768h11.6V24.01Zm11.6,5.192v1.243h-11.6V29.2ZM15.268,34.264h5.794v.21a1.162,1.162,0,0,0,1.161,1.161h2.806v.746H15.268Zm12.725,3.3a.977.977,0,0,1,.976.976v1.079H11.328V38.539a.977.977,0,0,1,.976-.976Zm9.112-3.108H22.243v-2.83H37.105Zm2.011-2.789a1.418,1.418,0,0,1-.83,1.288V31.6a1.162,1.162,0,0,0-1.161-1.161h-.468V29.426h2.459Zm0-3.42h-.849c.012-.067.019-3.075.019-3.075a1.163,1.163,0,0,0-1.161-1.161h-.468V22.768h.468a1.163,1.163,0,0,0,1.161-1.161V18.737a1.163,1.163,0,0,0-1.161-1.161H33.79a.59.59,0,0,0,0,1.181h3.315v2.83H22.243v-2.83h7.874a.59.59,0,0,0,0-1.181H22.223a1.163,1.163,0,0,0-1.161,1.161v2.869a1.163,1.163,0,0,0,1.161,1.161h.468V24.01h-.468a1.163,1.163,0,0,0-1.161,1.161s.007,3.008.019,3.075H1.181V8.531H39.116Zm0-20.9H1.224V3.1A1.419,1.419,0,0,1,2.642,1.681H37.7A1.419,1.419,0,0,1,39.116,3.1Zm0,0" transform="translate(0 -0.5)" fill="#fff" stroke="#fff" stroke-width="0.5"/>
    </g>
  </g>
</svg>
