<svg xmlns="http://www.w3.org/2000/svg" width="57.329" height="57.326" viewBox="0 0 57.329 57.326"><defs><style>.a{fill:#fff;}</style></defs><path class="a" d="M8,338.828a2.1,2.1,0,0,1,2.256-1.245c1.28.058,2.563.014,3.9.014v-2.811c.9-.059,1.747-.124,2.6-.169a45.336,45.336,0,0,0,9.315-1.766A21.014,21.014,0,0,1,31.4,332a5.022,5.022,0,0,1,5.16,4.065c.015.063.043.123.109.3.061-.24.092-.356.121-.472A5.054,5.054,0,0,1,41.76,332a20.672,20.672,0,0,1,5.614.879,45.318,45.318,0,0,0,11.218,1.857c.169,0,.333.033.548.055V337.6h.579c1.118,0,2.239.045,3.356-.014a2.086,2.086,0,0,1,2.254,1.245v.9a2.583,2.583,0,0,1-1.231,1.231H9.231A2.583,2.583,0,0,1,8,339.724Z" transform="translate(-8 -283.63)"/><path class="a" d="M151.031,8a2.134,2.134,0,0,1,1.25,2.256,14.877,14.877,0,0,1-.583,4.8,6.034,6.034,0,0,1-5.772,4.259c-6.884.037-13.767.016-20.651.016-.09,0-.18-.015-.333-.03,0-.942-.022-1.871,0-2.794a16.663,16.663,0,0,1,.2-3.284A6.486,6.486,0,0,1,130.517,8.1a1.482,1.482,0,0,0,.248-.1Z" transform="translate(-107.477 -8)"/><path class="a" d="M8,383.75a2.583,2.583,0,0,0,1.231,1.228H8Z" transform="translate(-8 -327.656)"/><path class="a" d="M383.75,384.977a2.583,2.583,0,0,0,1.231-1.231v1.231Z" transform="translate(-327.656 -327.655)"/><path class="a" d="M105.7,241.644c-2.09-.394-4.082-.746-6.064-1.156-2.131-.448-4.234-1.045-6.375-1.42a9.49,9.49,0,0,0-6.915,1.045,1.667,1.667,0,0,1-.614.3,28.108,28.108,0,0,0-3.24-1.285,12.571,12.571,0,0,0-5.874.169c-2.332.491-4.628,1.142-6.958,1.642-1.3.282-2.641.411-4.058.622v-7.028a6.647,6.647,0,0,1,4.762-6.449l5.1-1.595c1.818,5.076,5.271,8,10.74,7.763,4.952-.215,8.039-3.111,9.633-7.763,1.086.334,2.186.669,3.284,1.011.639.2,1.276.411,1.915.614a6.639,6.639,0,0,1,4.688,6.332c.01,2.164,0,4.33,0,6.491C105.728,241.1,105.713,241.261,105.7,241.644Z" transform="translate(-57.001 -193.872)"/><path class="a" d="M147.027,106.74c-.061,2.495.219,4.961-.648,7.354a11.188,11.188,0,0,1-21.587-2c-.248-1.744-.149-3.534-.223-5.349Z" transform="translate(-107.167 -92)"/><path class="a" d="M153.59,216.7a14.649,14.649,0,0,0,13.8.039c.368,2.321-3.027,5.546-6.146,5.854C157.533,222.955,153.7,220.029,153.59,216.7Z" transform="translate(-131.855 -185.544)"/></svg>