<svg xmlns="http://www.w3.org/2000/svg" xmlns:xlink="http://www.w3.org/1999/xlink" width="1780" height="452.067" viewBox="0 0 1780 452.067"><defs><style>.a{mix-blend-mode:multiply;isolation:isolate;fill:url(#a);}</style><linearGradient id="a" x1="0.012" y1="0.98" x2="1.155" y2="-0.166" gradientUnits="objectBoundingBox"><stop offset="0" stop-color="#6dbaf0"/><stop offset="1" stop-color="#d7652f"/></linearGradient></defs><path class="a" d="M68.342,586.7c-26.919-.107-43.688-.7-56.07-1.994a115.146,115.146,0,0,1-17.294-2.921,41.356,41.356,0,0,1-11.661-4.776c-5.817-3.686-9.212-8.879-11.008-16.838-1.7-7.518-1.933-17.183-2.23-29.419q-.037-1.546-.077-3.147V136.4c.467.012,4.248.018,12.644.018,7.015,0,17.052,0,27.679-.008,15.29-.006,36.23-.015,58.019-.015L1750,134.634V584.941Z" transform="translate(1750 586.7) rotate(180)"/></svg>