<svg xmlns="http://www.w3.org/2000/svg" width="49.816" height="49.763" viewBox="0 0 49.816 49.763">
  <g id="Banner_Icon" data-name="Banner Icon" transform="translate(0.25 0.25)">
    <g id="Group_5765" data-name="Group 5765" transform="translate(0)">
      <path id="Path_7567" data-name="Path 7567" d="M46.14.5H3.177A3.18,3.18,0,0,0,0,3.677V38.6a3.18,3.18,0,0,0,3.177,3.176H5.893a.722.722,0,0,0,0-1.443H3.177A1.735,1.735,0,0,1,1.444,38.6V35.862h26.3v1.244h-.572a1.421,1.421,0,0,0-1.42,1.42v1.808H10.281a.722.722,0,0,0,0,1.443h6.94v2.589H15.042A2.64,2.64,0,0,0,12.405,47V48.56a1.2,1.2,0,0,0,1.2,1.2H35.654a1.2,1.2,0,0,0,1.2-1.2V47a2.64,2.64,0,0,0-2.636-2.636H32.041v-.912H45.384a1.421,1.421,0,0,0,1.419-1.42v-.34A3.181,3.181,0,0,0,49.262,38.6l.055-34.923A3.179,3.179,0,0,0,46.14.5ZM27.191,34.143v-3.46H45.36v3.46Zm1.992-4.9V27.721H43.368V29.24Zm14.186,6.347v1.519H29.183V35.587Zm-24.7,6.189h7.083v.257a1.421,1.421,0,0,0,1.42,1.419H30.6v.912H18.664Zm15.556,4.032A1.194,1.194,0,0,1,35.413,47V48.32H13.849V47a1.194,1.194,0,0,1,1.193-1.193Zm11.139-3.8H27.191V38.549H45.36ZM47.819,38.6A1.733,1.733,0,0,1,46.8,40.175v-1.65a1.421,1.421,0,0,0-1.42-1.419h-.572V35.862h3.007Zm0-4.181H46.78c.015-.082.024-3.759.024-3.759a1.421,1.421,0,0,0-1.42-1.42h-.572V27.721h.572A1.421,1.421,0,0,0,46.8,26.3V22.794a1.421,1.421,0,0,0-1.42-1.42H41.307a.722.722,0,0,0,0,1.444H45.36v3.46H27.191v-3.46h9.625a.722.722,0,0,0,0-1.444H27.167a1.421,1.421,0,0,0-1.42,1.42V26.3a1.421,1.421,0,0,0,1.42,1.42h.572V29.24h-.572a1.421,1.421,0,0,0-1.42,1.42s.009,3.677.024,3.759H1.444v-24.1H47.819Zm0-25.544H1.5v-5.2A1.735,1.735,0,0,1,3.23,1.944H46.085a1.735,1.735,0,0,1,1.733,1.733Zm0,0" transform="translate(0 -0.5)" fill="#fff" stroke="#fff" stroke-width="0.5"/>
    </g>
  </g>
</svg>
