<svg xmlns="http://www.w3.org/2000/svg" width="51.964" height="74.779" viewBox="0 0 51.964 74.779">
  <g id="Objective_1" data-name="Objective 1" transform="translate(-1344.658 -2367)">
    <g id="Artboard_1" data-name="Artboard 1" transform="translate(1344.658 2367)">
      <path id="Path_7617" data-name="Path 7617" d="M84.9,120.213a13.114,13.114,0,0,1-1.336-.539,4.843,4.843,0,0,1-2.633-4.512,3.79,3.79,0,0,1-3.505-2.337,3.742,3.742,0,0,1,.767-4.165,4.051,4.051,0,0,1-1.081-2.707,3.953,3.953,0,0,1,1.052-2.635c-1.614-2.532-1.412-4.115.88-6.128-.869-1.494-1.653-3.09-2.666-4.528-1.246-1.764-2.682-3.394-4.035-5.083a25.884,25.884,0,0,1,.014-32.342c.629-.779,1.205-.954,1.778-.512s.551,1.1-.047,1.852a23.7,23.7,0,0,0,.543,30.3,40.164,40.164,0,0,1,6.348,9.482.929.929,0,0,0,.7.438c7.326.021,14.652.014,21.978.029.446,0,.547-.245.722-.553,1.133-1.98,2.269-3.959,3.453-5.91A1.059,1.059,0,0,1,109.4,90a1.094,1.094,0,0,1,.195,1.612c-.066.1-.148.195-.208.3q-1.435,2.454-2.859,4.911a3.05,3.05,0,0,0-.183.452c2.171,1.975,2.409,3.819.923,5.756a21.9,21.9,0,0,1,.853,2.921,3.254,3.254,0,0,1-1.009,2.639c1.957,3.385.835,6.1-2.75,6.566-.027.294-.039.606-.092.909a4.781,4.781,0,0,1-3.435,3.963c-.158.053-.31.119-.463.177Zm7.667-7.285h11.612c1.168,0,1.858-.687,1.778-1.725-.072-.933-.744-1.451-1.924-1.453H88.476a5.238,5.238,0,0,1-.8-.031,1.069,1.069,0,0,1-.066-2.1,3.928,3.928,0,0,1,.87-.056l15.259-.008a6.885,6.885,0,0,0,.874-.031,1.517,1.517,0,0,0,1.346-1.484c.037-1.032-.643-1.644-1.864-1.646H85.547c-1.509,0-3.018-.012-4.528,0a1.543,1.543,0,0,0-1.71,1.579,1.562,1.562,0,0,0,1.723,1.575c.534.016,1.071-.016,1.6.012a1.11,1.11,0,0,1,1.168,1.135,1.074,1.074,0,0,1-1.168,1.04c-.608.023-1.219-.021-1.823.031a1.535,1.535,0,0,0-1.488,1.721,1.576,1.576,0,0,0,1.778,1.435Q86.83,112.936,92.563,112.928Zm.047-13.92H85.317c-1.459,0-2.921-.014-4.376.01a1.529,1.529,0,0,0-1.624,1.655c.045,1,.746,1.525,2.078,1.525H103.86a3.877,3.877,0,0,0,.939-.09,1.558,1.558,0,0,0,1.017-2.191,1.657,1.657,0,0,0-1.681-.911Q98.372,99.018,92.61,99.009Zm9.474,16.163H83.194a2.522,2.522,0,0,0,2.495,2.839q6.964.037,13.928,0A2.513,2.513,0,0,0,102.084,115.172Z" transform="translate(-66.674 -45.435)" fill="#fff"/>
      <path id="Path_7618" data-name="Path 7618" d="M133.164,8a44.213,44.213,0,0,1,4.715.882c10.442,3.1,16.9,9.986,18.93,20.7,1.4,7.412-.475,14.179-4.974,20.221a3.174,3.174,0,0,1-.372.448,1.08,1.08,0,0,1-1.706-1.3,3.661,3.661,0,0,1,.425-.584A23.784,23.784,0,0,0,134.77,10.465a23.169,23.169,0,0,0-17.814,4.555c-.156.117-.3.245-.463.354a1.116,1.116,0,0,1-1.62-.177,1.024,1.024,0,0,1,.282-1.533,51.442,51.442,0,0,1,4.537-2.9A23.581,23.581,0,0,1,128.8,8.123,4.031,4.031,0,0,0,129.366,8Z" transform="translate(-105.301 -8)" fill="#fff"/>
      <path id="Path_7619" data-name="Path 7619" d="M140.3,61.422c0,.561.023,1.12,0,1.679a2.555,2.555,0,0,1-2.5,2.532,1.12,1.12,0,0,0-1.182.917,17.968,17.968,0,0,1-.987,2.267.887.887,0,0,0,.152,1.168,2.655,2.655,0,0,1-.064,3.957c-.662.68-1.328,1.363-2.014,2.01a2.642,2.642,0,0,1-3.856.018,1,1,0,0,0-1.342-.218,16.959,16.959,0,0,1-2.29.935.858.858,0,0,0-.709.927A2.713,2.713,0,0,1,122.56,80.5c-.876,0-1.753.012-2.627,0a2.7,2.7,0,0,1-2.865-2.824.9.9,0,0,0-.721-1,20.911,20.911,0,0,1-2.354-.974.9.9,0,0,0-1.168.166,2.678,2.678,0,0,1-4.119-.086c-.641-.633-1.283-1.264-1.908-1.912a2.628,2.628,0,0,1-.049-3.846.925.925,0,0,0,.195-1.221,25.216,25.216,0,0,1-1.069-2.471.89.89,0,0,0-.888-.687,2.631,2.631,0,0,1-2.726-2.857c-.012-.948-.019-1.9,0-2.845a2.579,2.579,0,0,1,2.434-2.689,1.112,1.112,0,0,0,1.1-.919,24.222,24.222,0,0,1,1.007-2.5.858.858,0,0,0-.129-1.048,2.645,2.645,0,0,1,.138-3.8q1.013-1.05,2.066-2.062a2.627,2.627,0,0,1,3.636-.195.935.935,0,0,0,1.168.1c.874-.419,1.778-.779,2.685-1.12a.926.926,0,0,0,.7-.874,2.656,2.656,0,0,1,2.711-2.442q1.5-.027,2.993,0a2.658,2.658,0,0,1,2.7,2.446.919.919,0,0,0,.713.865q1.394.532,2.748,1.168a.855.855,0,0,0,1.052-.1,2.657,2.657,0,0,1,3.745.195q1.024.987,2.014,2.014a2.642,2.642,0,0,1,.175,3.745.938.938,0,0,0-.134,1.168c.4.882.7,1.813,1.1,2.693a1.128,1.128,0,0,0,.689.584c1.932.325,2.713,1.2,2.726,3.133v1.094Zm-31-8.2c-.208.608-.358,1.091-.537,1.558-.3.793-.672,1.558-.931,2.37a2.809,2.809,0,0,1-2.7,2.249.635.635,0,0,0-.689.742c.014.828.027,1.655,0,2.481-.025.625.216.851.847.876a2.7,2.7,0,0,1,2.6,1.98,21.725,21.725,0,0,0,.974,2.278,2.762,2.762,0,0,1-.428,3.659.652.652,0,0,0,.047,1.057c.584.555,1.157,1.116,1.7,1.706.448.485.806.473,1.279.012a2.7,2.7,0,0,1,3.346-.512c.726.335,1.462.654,2.218.919a2.769,2.769,0,0,1,2.222,2.937c.019.565.261.779.8.779.779-.012,1.558-.027,2.337,0,.672.027.974-.195.974-.921a2.685,2.685,0,0,1,2-2.726c.754-.273,1.507-.553,2.23-.894a2.781,2.781,0,0,1,3.653.5c.389.343.7.389,1.063,0,.594-.611,1.194-1.217,1.809-1.805.405-.389.389-.7,0-1.112a2.707,2.707,0,0,1-.448-3.47,18.375,18.375,0,0,0,.937-2.2,2.849,2.849,0,0,1,2.824-2.2c.553-.01.713-.284.7-.779-.014-.8-.027-1.607,0-2.409.025-.613-.21-.88-.833-.915a2.629,2.629,0,0,1-2.458-1.947,27.863,27.863,0,0,0-1.05-2.639,2.741,2.741,0,0,1,.362-3.311.654.654,0,0,0-.064-1.059c-.6-.571-1.186-1.155-1.753-1.753a.708.708,0,0,0-1.126-.064,2.71,2.71,0,0,1-3.133.29c-.9-.43-1.817-.814-2.75-1.157a2.737,2.737,0,0,1-1.988-2.446c-.045-.477-.257-.7-.74-.693q-1.314.014-2.627,0c-.481,0-.7.21-.742.691a2.776,2.776,0,0,1-2.053,2.477,24.418,24.418,0,0,0-2.617,1.094,2.745,2.745,0,0,1-3.258-.3.641.641,0,0,0-1.011.049c-.584.613-1.188,1.223-1.807,1.805-.409.389-.356.682-.043,1.124A11.923,11.923,0,0,1,109.3,53.219Z" transform="translate(-95.321 -35.693)" fill="#fff"/>
      <path id="Path_7620" data-name="Path 7620" d="M141.23,91.681A11.445,11.445,0,1,1,152.6,103.149,11.445,11.445,0,0,1,141.23,91.681Zm19.522,4.44a9.077,9.077,0,0,0-2.062-11.454,9.215,9.215,0,0,0-12.368.314c-3.815,3.568-3.349,8.835-1.716,11.141,1.256-1,2.518-1.994,3.807-3.018-1.077-2.863-.7-4.931,1.256-6.452a4.9,4.9,0,0,1,5.852-.119c2.058,1.461,2.469,3.468,1.416,6.58Zm-14.668,2.031a9.122,9.122,0,0,0,13.16-.018,7.62,7.62,0,0,0-3.914-3.094,1.069,1.069,0,0,0-.687.027,5.238,5.238,0,0,1-3.912,0,1.168,1.168,0,0,0-.754,0,7.565,7.565,0,0,0-3.893,3.085Zm6.566-4.9a2.726,2.726,0,1,0-2.717-2.763,2.726,2.726,0,0,0,2.717,2.763Z" transform="translate(-126.711 -66.188)" fill="#fff"/>
    </g>
  </g>
</svg>
