<svg xmlns="http://www.w3.org/2000/svg" width="80.151" height="71.9" viewBox="0 0 80.151 71.9">
  <g id="Objective_3" data-name="Objective 3" transform="translate(-557.659 -2367)">
    <g id="Artboard_1_copy_3" data-name="Artboard 1 copy 3" transform="translate(557.659 2367)">
      <path id="Path_7612" data-name="Path 7612" d="M88.5,77.449c-.071.209-.153.433-.209.654a6.006,6.006,0,0,1-5.316,4.39c-.441.038-.886.048-1.33.048H59.808c.552,2.387,1.079,4.658,1.6,6.9,1.114.065,2.164.054,3.188.209a7.7,7.7,0,0,1,6.493,7.505,2.653,2.653,0,0,1-2.3,2.718,6.808,6.808,0,0,1-1.012.052H35.845c-2.421,0-3.447-1.112-3.236-3.5a7.745,7.745,0,0,1,7.376-6.914c.573-.023,1.15.021,1.718-.027.209-.017.535-.182.573-.334.527-2.147,1.012-4.3,1.543-6.615H21.659A6.375,6.375,0,0,1,17.189,81a5.994,5.994,0,0,1-2.047-4.645c0-3.782,0-7.564-.023-11.346a1.708,1.708,0,0,0-.435-1.07C8.986,58.014,7,51.017,9.272,43.14,11.5,35.365,16.848,30.46,24.744,28.585a20.36,20.36,0,0,1,15.293,2.436,3.038,3.038,0,0,0,1.449.408q20.185.033,40.373.019c3.554,0,5.578,1.532,6.539,4.948a1.209,1.209,0,0,0,.1.209ZM43.865,33.795c7.526,8.548,8.362,17.615,2.509,27.458.521.489,1.1,1.045,1.706,1.585a.734.734,0,0,0,.548.165,2.811,2.811,0,0,1,2.653.989c2.534,2.555,5.093,5.088,7.622,7.645a1.557,1.557,0,0,0,1.227.514q4.459-.035,8.918,0a1.167,1.167,0,0,1,1.315,1.219c-.021.728-.489,1.114-1.317,1.125-1.148.015-2.3,0-3.443,0H61.631c.813,2.643.782,3.013-.483,5.645.272.015.521.04.767.04H82.179a3.512,3.512,0,0,0,3.7-2.419,19.679,19.679,0,0,0,.349-3.261H74.388a1.123,1.123,0,0,1-1.254-1.11,1.184,1.184,0,0,1,1.223-1.233c.209-.015.418,0,.627,0H86.151V37.987c0-2.737-1.453-4.181-4.213-4.181H43.865ZM29.231,30.4a18.612,18.612,0,1,0,.006,0ZM17.475,74.495v1.672a3.68,3.68,0,0,0,3.972,4.008H52.568c.236,0,.472-.031.937-.065-1.817-1.8-3.477-3.412-5.1-5.061a1.739,1.739,0,0,0-1.365-.567q-14.308.027-28.618.013ZM51.83,97.583H67.783c.972,0,1.016-.056.882-1.045a5.215,5.215,0,0,0-4.39-4.555,22.585,22.585,0,0,0-3.345-.121q-10.244-.017-20.488,0a5.38,5.38,0,0,0-5.459,4.614c-.128,1.06-.09,1.106.983,1.106ZM17.507,72.078H45.56L44.444,71.1a2.9,2.9,0,0,1-1.135-2.829.627.627,0,0,0-.14-.479c-.56-.61-1.146-1.2-1.672-1.744-8,5.017-15.941,5.137-23.983.293ZM58.919,89.484a1.687,1.687,0,0,0,0-.328c-.47-2.057-.928-4.114-1.447-6.159-.05-.2-.483-.418-.738-.418-3.286-.029-6.571,0-9.855-.029-.475,0-.692.136-.792.627-.3,1.451-.654,2.893-.987,4.34l-.447,1.967ZM49.271,65.363l-3.606,3.59c-.017-.054-.017-.021,0,0,3.309,3.322,6.587,6.69,9.949,9.947a2.513,2.513,0,0,0,4.118-1.254,2.593,2.593,0,0,0-.824-2.686l-9.238-9.242C49.526,65.57,49.363,65.442,49.271,65.363Zm-5.787-.907L44.841,66.1C45.4,65.551,45.9,65.06,46.38,64.6c-.529-.527-1.045-1.045-1.511-1.505Z" transform="translate(-8.35 -28.026)" fill="#fff"/>
      <path id="Path_7613" data-name="Path 7613" d="M241.212,99.587h11.642c.261,0,.594-.088.767.038.364.27.859.627.9,1s-.349.836-.654,1.169c-.148.163-.537.138-.817.138H229.3a2.553,2.553,0,0,1-.627-.033,1.115,1.115,0,0,1-.941-1.254,1.061,1.061,0,0,1,1.045-1.045,5.617,5.617,0,0,1,.7-.013Z" transform="translate(-181.862 -84.603)" fill="#fff"/>
      <path id="Path_7614" data-name="Path 7614" d="M241.15,135.42h11.565a6.511,6.511,0,0,1,.857.029.969.969,0,0,1,.951,1.045,2.166,2.166,0,0,1-.723,1.152c-.182.169-.592.132-.9.132H229.382a3.015,3.015,0,0,1-.922-.109.947.947,0,0,1-.721-1.2,2.331,2.331,0,0,1,.926-.989c.2-.138.556-.05.836-.05Z" transform="translate(-181.834 -112.951)" fill="#fff"/>
      <path id="Path_7615" data-name="Path 7615" d="M234.356,171.265c1.771,0,3.541-.021,5.312,0,.945.015,1.564.809,1.162,1.549a1.6,1.6,0,0,1-1.133.748c-3.567.056-7.135.044-10.7.027a1.122,1.122,0,0,1-1.254-1.192c.013-.709.464-1.127,1.3-1.135C230.812,171.25,232.585,171.265,234.356,171.265Z" transform="translate(-181.874 -141.312)" fill="#fff"/>
      <path id="Path_7616" data-name="Path 7616" d="M50.14,71.154c2.532.583,5.348.506,6.976,3.171a5.4,5.4,0,0,0,.441-.475,13.792,13.792,0,0,0,1.959-14.03,13.537,13.537,0,0,0-11.08-8.812A14.163,14.163,0,0,0,32.23,62.538a2.718,2.718,0,0,1-.209.746,1.079,1.079,0,0,1-1.394.55,1.1,1.1,0,0,1-.763-1.359,15.643,15.643,0,0,1,4.1-8.536c4.735-5,10.545-6.69,17.105-4.727s10.482,6.623,11.647,13.38A16.629,16.629,0,0,1,30,68.5a3.635,3.635,0,0,1-.092-.539,1.126,1.126,0,0,1,.916-1.328,1.173,1.173,0,0,1,1.394.947,25.689,25.689,0,0,0,1.02,3.27c.539,1.194,1.29,2.3,2.036,3.59,1.708-2.695,4.459-2.666,6.945-3.247a1.829,1.829,0,0,0-.575-1.94A6.126,6.126,0,0,1,40.39,67.4a5.5,5.5,0,0,0-1.236-2.176,1.909,1.909,0,0,1-.4-1.3q-.069-2.383-.013-4.771a4.917,4.917,0,0,1,5.137-5.03c1.564-.015,3.136,0,4.693,0A2.8,2.8,0,0,1,51.424,55.9a1.121,1.121,0,0,0,.537.475,2.716,2.716,0,0,1,1.746,2.62c0,1.672.048,3.345-.019,5a4.026,4.026,0,0,1-.552,1.486c-.234.475-.548.889-.822,1.334a17.1,17.1,0,0,1-1.614,2.54A1.858,1.858,0,0,0,50.14,71.154Zm-3.332,8.218a13.752,13.752,0,0,0,7.574-2.509c1.045-.717,1.058-1.334.017-2.1a2.686,2.686,0,0,0-.9-.443c-.98-.249-1.969-.477-2.964-.652a1.187,1.187,0,0,0-.836.209,5.556,5.556,0,0,1-7.006.046,1.018,1.018,0,0,0-.677-.249,32.367,32.367,0,0,0-3.4.822A3,3,0,0,0,37.5,75.4c-.376.418-.286.786.209,1.148A14.842,14.842,0,0,0,46.808,79.372ZM40.975,63.049c.146.368.174.7.33.784a2,2,0,0,1,.943,1.693,3.991,3.991,0,0,0,4.087,3.357,4.1,4.1,0,0,0,3.951-3.554,4.927,4.927,0,0,1,.78-1.428c.094-.161.278-.309.291-.472.038-.537.013-1.079.013-1.658a5.291,5.291,0,0,0-3.782.431,6.046,6.046,0,0,1-3.288.836C43.254,63.044,42.223,63.049,40.975,63.049ZM51.3,59.286c.159-.483,0-.709-.518-.771a1.581,1.581,0,0,1-1.5-1.447c-.065-.443-.272-.608-.725-.6-1.672.021-3.33,0-4.994.019a2.413,2.413,0,0,0-2.323,1.76,18.883,18.883,0,0,0-.209,2.454c2.176-.094,4.242.345,6.132-.886A4.775,4.775,0,0,1,49.1,59.3a20.232,20.232,0,0,1,2.2-.015ZM47.88,71.164H44.565c.075.418,0,1.085.261,1.254a2.461,2.461,0,0,0,2.668.019c.259-.161.247-.769.387-1.269Z" transform="translate(-25.348 -44.153)" fill="#fff"/>
    </g>
  </g>
</svg>
