<svg xmlns="http://www.w3.org/2000/svg" width="72.838" height="72.528" viewBox="0 0 72.838 72.528">
  <g id="Objective_2" data-name="Objective 2" transform="translate(-164.658 -2367)">
    <g id="Artboard_1_copy_2" data-name="Artboard 1 copy 2" transform="translate(164.658 2367)">
      <path id="Path_7604" data-name="Path 7604" d="M228.42,210.21a3.582,3.582,0,0,1-1.946,2.216,1.068,1.068,0,0,1-.4.127c-1.33-.08-1.866.749-2.157,1.876a3.052,3.052,0,0,1-.34.779,1.277,1.277,0,0,0,.19,1.671,3.049,3.049,0,0,1-.112,4.2q-.821.887-1.711,1.711a3.058,3.058,0,0,1-4.145.129,1.365,1.365,0,0,0-1.733-.215,11.824,11.824,0,0,1-1.711.7,1.163,1.163,0,0,0-.823,1.043c-.308,2.157-1.4,3.1-3.579,3.1-.593,0-1.186.011-1.779,0a3.072,3.072,0,0,1-3.134-2.8,1.446,1.446,0,0,0-1.245-1.475,1.141,1.141,0,0,1-.329-.129,2.6,2.6,0,0,0-3.332.112,2.65,2.65,0,0,1-3.421-.367,19.9,19.9,0,0,1-1.916-1.9,3.018,3.018,0,0,1-.04-4.086,1.339,1.339,0,0,0,.215-1.676,13.911,13.911,0,0,1-.7-1.711,1.2,1.2,0,0,0-1.089-.867,3.1,3.1,0,0,1-3.056-3.459V207.34a3.088,3.088,0,0,1,2.883-3.2,1.356,1.356,0,0,0,1.33-1.043,13.827,13.827,0,0,1,.715-1.711,1.157,1.157,0,0,0-.19-1.37,3.1,3.1,0,0,1,.209-4.514c.483-.49.962-.983,1.46-1.458a3.068,3.068,0,0,1,4.252-.148,1.328,1.328,0,0,0,1.619.215c.57-.277,1.175-.5,1.77-.728a1.173,1.173,0,0,0,.815-1.047,3.121,3.121,0,0,1,3.516-3.083c.665,0,1.33-.015,1.992,0a3.015,3.015,0,0,1,2.992,2.773,1.409,1.409,0,0,0,1.18,1.456,1.23,1.23,0,0,1,.333.124c1.152.627,2.172.928,3.4-.1a2.735,2.735,0,0,1,3.472.424c.629.57,1.234,1.18,1.811,1.809a3.028,3.028,0,0,1,.122,4.086,1.443,1.443,0,0,0-.19,1.861c.279.517.4,1.121.7,1.629.19.312.534.717.832.737a3.447,3.447,0,0,1,3.275,2.589Zm-32.381,8.7a5.7,5.7,0,0,0,.5.8c.38.424.8.814,1.2,1.213.76.76,1.095.775,1.941.112a3.05,3.05,0,0,1,3.269-.454c.523.219,1.03.49,1.568.663a3.317,3.317,0,0,1,2.611,3.153,1.018,1.018,0,0,0,1.14,1.015h1.711c1.064,0,1.33-.23,1.46-1.3a3.089,3.089,0,0,1,2.053-2.661c.525-.217,1.072-.38,1.576-.646a3.292,3.292,0,0,1,4.012.412,1.011,1.011,0,0,0,1.521-.1q.6-.6,1.207-1.207c.76-.772.779-1.081.11-1.937a3.059,3.059,0,0,1-.458-3.267c.238-.57.511-1.123.709-1.711a3.322,3.322,0,0,1,3.111-2.49,1,1,0,0,0,1.005-1.131v-1.849c0-.909-.3-1.222-1.218-1.308a3.081,3.081,0,0,1-2.71-1.99c-.241-.57-.428-1.158-.7-1.711a3.262,3.262,0,0,1,.441-3.948,1.014,1.014,0,0,0-.084-1.521c-.4-.407-.8-.808-1.207-1.209-.775-.77-1.093-.789-1.937-.124a3.081,3.081,0,0,1-3.338.437,14.111,14.111,0,0,0-1.37-.583,3.436,3.436,0,0,1-2.773-3.271.932.932,0,0,0-1.049-.924c-.614,0-1.234,0-1.849,0-1.03,0-1.281.239-1.391,1.277a3.024,3.024,0,0,1-1.927,2.619c-.57.247-1.154.435-1.711.709a3.321,3.321,0,0,1-4.018-.426.985.985,0,0,0-1.462.055c-.464.435-.874.869-1.308,1.308-.7.707-.726,1.07-.106,1.83a3.1,3.1,0,0,1,.477,3.391c-.228.545-.487,1.08-.682,1.636a3.272,3.272,0,0,1-3.109,2.471.974.974,0,0,0-.994,1.074v1.849c0,1.005.207,1.241,1.213,1.365a3.2,3.2,0,0,1,2.788,2.207c.226.6.466,1.19.732,1.77a3.17,3.17,0,0,1-.464,3.583A7.188,7.188,0,0,0,196.039,218.911Z" transform="translate(-155.582 -155.026)" fill="#fff"/>
      <path id="Path_7605" data-name="Path 7605" d="M16.624,32.071V77.1c0,1.794.7,2.5,2.49,2.5h34.85c.262,0,.525-.011.783.011a.99.99,0,0,1,.986,1.015,1.019,1.019,0,0,1-.922,1.083,3.249,3.249,0,0,1-.639.023H18.968a4.141,4.141,0,0,1-4.476-4.474V75.635H12.728A4.115,4.115,0,0,1,8.4,71.3V13.762A4.167,4.167,0,0,1,12.95,9.21h42.6c2.878,0,4.562,1.667,4.575,4.533V15.3h1.827a4.051,4.051,0,0,1,4.227,4.13c.025,6.877.011,13.751,0,20.628,0,.787-.4,1.258-1.026,1.275-.679.017-1.1-.487-1.1-1.361V19.633a1.992,1.992,0,0,0-2.207-2.2H32.186c-.95,0-.95,0-.95.926v9.1c0,2.916-1.682,4.6-4.588,4.6h-9.1ZM57.991,15.3V13.863c0-1.825-.711-2.518-2.556-2.518H13.121c-1.922,0-2.592.677-2.592,2.615V70.924a7.67,7.67,0,0,0,.015.783,1.941,1.941,0,0,0,1.682,1.762c.722.067,1.454.013,2.262.013v-.95q0-19.63-.013-39.258a6.228,6.228,0,0,1,1.954-4.693q5.717-5.649,11.366-11.364a6.164,6.164,0,0,1,4.638-1.923c8.2.03,16.4.013,24.606.013ZM29.1,19.28,18.458,29.923c2.824,0,5.778.036,8.732-.017a1.927,1.927,0,0,0,1.9-2.076c.034-1.064,0-2.131.011-3.2Z" transform="translate(-8.4 -9.21)" fill="#fff"/>
      <path id="Path_7606" data-name="Path 7606" d="M172.366,84.535h8.53a2.533,2.533,0,0,1,2.826,2.8c0,.853.019,1.711,0,2.56a2.509,2.509,0,0,1-2.606,2.6c-3.317.017-6.635,0-9.952,0-.808,0-1.3-.45-1.275-1.11.023-.627.5-1.017,1.285-1.017,3.176,0,6.352-.019,9.526,0,.679,0,.95-.2.9-.893s-.023-1.422,0-2.133c.01-.464-.146-.692-.654-.692q-8.566.015-17.132,0c-.454,0-.642.19-.633.637.017.806.021,1.612,0,2.416-.013.511.238.663.7.654.663-.013,1.33-.015,1.99,0a1.075,1.075,0,0,1,1.159,1.074,1.063,1.063,0,0,1-1.125,1.047c-.806.025-1.614.038-2.418,0a2.514,2.514,0,0,1-2.431-2.556q-.023-1.42,0-2.851a2.477,2.477,0,0,1,2.572-2.547c2.916-.019,5.829,0,8.743,0Z" transform="translate(-132.037 -70.203)" fill="#fff"/>
      <path id="Path_7607" data-name="Path 7607" d="M82.069,211.144c2.724,0,5.449-.017,8.173.021a1.629,1.629,0,0,1,1.091.481,1,1,0,0,1-.652,1.589,3.536,3.536,0,0,1-.777.042H74.2a5.676,5.676,0,0,1-.57,0,1.055,1.055,0,0,1-1.024-1.14,1,1,0,0,1,1.08-.986c1.587-.017,3.174,0,4.752,0Z" transform="translate(-60.398 -172.76)" fill="#fff"/>
      <path id="Path_7608" data-name="Path 7608" d="M82.077,250.851h-8.1c-.9,0-1.37-.38-1.365-1.068s.481-1.062,1.384-1.062h16.2c.884,0,1.424.492,1.34,1.186-.072.6-.526.95-1.287.95Q86.163,250.864,82.077,250.851Z" transform="translate(-60.406 -203.198)" fill="#fff"/>
      <path id="Path_7609" data-name="Path 7609" d="M82.316,288.466q-4.048,0-8.1-.011a1.554,1.554,0,0,1-.986-.257,1.252,1.252,0,0,1-.35-.977,1.463,1.463,0,0,1,.688-.789,1.666,1.666,0,0,1,.831-.091H90.6a1.107,1.107,0,0,1,1.159,1.089,1.081,1.081,0,0,1-1.2,1.034c-2.748.011-5.495,0-8.241,0Z" transform="translate(-60.622 -233.663)" fill="#fff"/>
      <path id="Path_7610" data-name="Path 7610" d="M77.743,326.208c-1.349,0-2.7.021-4.052,0-.966-.019-1.54-.852-1.059-1.562a1.4,1.4,0,0,1,.981-.536c2.771-.044,5.544-.03,8.317-.021a1.037,1.037,0,0,1,1.175,1.043,1.062,1.062,0,0,1-1.167,1.074C80.544,326.223,79.141,326.206,77.743,326.208Z" transform="translate(-60.283 -264.234)" fill="#fff"/>
      <path id="Path_7611" data-name="Path 7611" d="M242.144,252.741A11.412,11.412,0,1,1,253.617,241.4,11.44,11.44,0,0,1,242.144,252.741Zm8.127-6.941a9.094,9.094,0,0,0-1.942-11.421,9.231,9.231,0,0,0-12.544.245c-3.5,3.307-3.539,8.435-1.667,11.164l3.858-3.052c-1.158-2.661-.76-4.894,1.222-6.424a4.885,4.885,0,0,1,5.941-.027c1.99,1.53,2.395,3.739,1.254,6.449Zm-1.471,1.969a7.631,7.631,0,0,0-3.982-3.14,1.176,1.176,0,0,0-.739.063,5.217,5.217,0,0,1-3.75.013,1.387,1.387,0,0,0-.869-.027,7.551,7.551,0,0,0-3.87,3.077,9.107,9.107,0,0,0,13.209.015Zm-6.633-4.849a2.743,2.743,0,1,0-2.717-2.768A2.743,2.743,0,0,0,242.167,242.921Z" transform="translate(-188.505 -187.969)" fill="#fff"/>
    </g>
  </g>
</svg>
