<svg xmlns="http://www.w3.org/2000/svg" width="80.151" height="49.486" viewBox="0 0 80.151 49.486">
  <g id="Objective_4" data-name="Objective 4" transform="translate(-950.658 -2367)">
    <path id="Artboard_1_copy" data-name="Artboard 1 copy" d="M88.48,104.992a3.528,3.528,0,0,1-2.275,1.951c-1.739.627-3.454,1.319-5.162,2.026a2.7,2.7,0,0,1-2.942-.251.654.654,0,0,0-.6,0c-1.392.863-2.766,1.758-4.131,2.636.905,4.436-1.137,6.88-5.461,6.59-.872,3.218-2.114,4.181-5.622,4.3a4.734,4.734,0,0,1-2.091,3.719,4.794,4.794,0,0,1-4.238.539,4.735,4.735,0,0,1-3.845,4.06c-2.224.475-3.763-.847-5.4-2.116-.366.418-.711.836-1.077,1.225a4.116,4.116,0,0,1-4.324,1.307,4.162,4.162,0,0,1-3.1-3.289.836.836,0,0,0-.529-.55c-2.442-.276-3.663-1.315-4.234-3.669-.025-.1-.059-.194-.086-.282-3-.368-4.2-1.4-4.706-4.027-4.1-.627-5.659-3.094-4.1-6.615-.268-.194-.541-.418-.836-.608-1.516-.966-3.029-1.938-4.57-2.864a1.789,1.789,0,0,0-.884-.046,6.131,6.131,0,0,1-2.028.065c-2.139-.736-4.236-1.6-6.333-2.459a2.343,2.343,0,0,1-1.363-3.151q3.972-10.146,7.995-20.269a2.34,2.34,0,0,1,3.153-1.365c2.091.8,4.169,1.633,6.249,2.461a2.458,2.458,0,0,1,1.631,2.429.836.836,0,0,0,.378.606,10.723,10.723,0,0,0,4.725,1.116c3.272.061,6.577,0,9.764,1.029.209.071.627-.148.824-.349,1.06-1.062,2.135-2.176,3.684-2.354a19.072,19.072,0,0,1,3.715.1c.905.073,1.8.28,2.7.418s1.388.644,1.3,1.348c-.094.744-.7,1.119-1.66.978-1.313-.194-2.626-.4-3.935-.627a3.8,3.8,0,0,0-3.535,1.2,71.426,71.426,0,0,1-8.938,7.7c-.573.418-1.165.79-1.739,1.2-.748.531-.748.939-.015,1.524a4.579,4.579,0,0,0,4.443.665,14.883,14.883,0,0,0,5.306-3.22c1.687-1.447,2.887-1.4,4.485.136a13.464,13.464,0,0,0,11.708,3.933,2.105,2.105,0,0,1,1.673.443c3.115,2.321,6.245,4.616,9.408,6.945l5.034-3.234c-2.224-5.645-4.428-11.225-6.669-16.905a11.246,11.246,0,0,0-1.321.46,13.185,13.185,0,0,1-9.291.824c-.276-.069-.569-.073-.836-.142a1.155,1.155,0,0,1-.951-1.319,1.1,1.1,0,0,1,1.282-.972c1.137.128,2.273.3,3.4.506a6.8,6.8,0,0,0,3.609-.366c1.073-.391,2.141-.794,3.19-1.185-.013-1.8.387-2.392,2.034-3.052q2.793-1.129,5.639-2.237a2.393,2.393,0,0,1,3.4,1.5q1.449,3.625,2.873,7.263c.362.92.18,1.553-.516,1.848s-1.288-.048-1.652-.962c-.989-2.49-1.972-4.982-2.992-7.56l-6.462,2.542,8.058,20.428,6.481-2.551-2.705-6.887a6.213,6.213,0,0,1-.23-.581,1.183,1.183,0,0,1,.661-1.489,1.144,1.144,0,0,1,1.5.627c.286.613.51,1.254.765,1.882q1.173,2.881,2.35,5.76Zm-40.3,21.726a19.107,19.107,0,0,0,2.406,1.443,2.164,2.164,0,0,0,2.718-1.077,2.072,2.072,0,0,0-.661-2.81c-.537-.418-1.077-.836-1.608-1.254-.794-.627-.96-1.254-.5-1.854s1.144-.606,1.919-.015c.974.744,1.934,1.505,2.927,2.231a6.651,6.651,0,0,0,1.463.884,2.266,2.266,0,0,0,2.8-1.093,2.231,2.231,0,0,0-.656-2.852c-.884-.688-1.777-1.367-2.664-2.051-.958-.74-1.177-1.365-.709-2,.5-.671,1.146-.627,2.162.155,1.325,1.014,2.63,2.057,3.991,3.019a2.331,2.331,0,0,0,3.27-.5,2.3,2.3,0,0,0-.571-3.232c-1.2-.776-2.3-1.723-3.42-2.6-.443-.347-.755-.836-.445-1.355a1.794,1.794,0,0,1,1.045-.767c.3-.067.734.209,1.031.418,1.591,1.181,3.146,2.408,4.733,3.594a2.348,2.348,0,0,0,3.521-.318,2.421,2.421,0,0,0-.711-3.427q-4.334-3.218-8.7-6.391a1.706,1.706,0,0,0-1.064-.307,15.915,15.915,0,0,1-13.017-4.683c-.514-.5-.811-.491-1.332-.029a16.793,16.793,0,0,1-5.961,3.64,6.941,6.941,0,0,1-6.615-.9c-2.193-1.622-2.091-3.937.123-5.53s4.372-3.37,6.558-5.055a3.3,3.3,0,0,1,.627-.307l-.209-.389c-1.6-.132-3.2-.291-4.8-.393-1.949-.123-3.914-.09-5.841-.345a18.078,18.078,0,0,1-3.372-1.142l-6.82,17.25,6.308,4.008c.648-.746,1.254-1.5,1.915-2.193a4.271,4.271,0,0,1,7.253,1.984c.056.222.115.443.178.682a4.373,4.373,0,0,1,4.692,3.979,4.452,4.452,0,0,1,4.763,4.056,4.183,4.183,0,0,1,4.246,2.425C50.035,123.44,49.606,125.117,48.184,126.718ZM18.75,83.993c-2.693,6.828-5.363,13.589-8.06,20.428l6.481,2.555c2.693-6.845,5.361-13.6,8.055-20.434Zm9.738,32.755a2.842,2.842,0,0,0,1-.514c1.123-1.227,2.22-2.486,3.238-3.8a1.8,1.8,0,0,0-.418-2.509,1.834,1.834,0,0,0-2.49.117c-1.108,1.208-2.168,2.463-3.192,3.742a1.724,1.724,0,0,0-.077,1.992A1.962,1.962,0,0,0,28.488,116.748Zm9.289-1.064a1.993,1.993,0,0,0-1.188-2.018,1.831,1.831,0,0,0-2.143.483c-1.018,1.15-2.026,2.312-2.988,3.508a1.865,1.865,0,0,0,.272,2.657,1.84,1.84,0,0,0,2.607-.159c1.045-1.154,2.055-2.354,3.036-3.569a3.052,3.052,0,0,0,.4-.9Zm9.577,7.823a2.219,2.219,0,0,0-1.313-1.823,1.882,1.882,0,0,0-2.193.554q-1.42,1.608-2.789,3.266a1.922,1.922,0,0,0,.086,2.793,1.942,1.942,0,0,0,2.831-.289c.93-1.045,1.85-2.12,2.718-3.22A6.451,6.451,0,0,0,47.354,123.507ZM42.6,119.48a2.174,2.174,0,0,0-1.3-1.811,1.821,1.821,0,0,0-2.132.5q-1.482,1.658-2.894,3.383a1.883,1.883,0,0,0,.192,2.779,1.919,1.919,0,0,0,2.718-.286c.966-1.089,1.917-2.2,2.827-3.335A5.617,5.617,0,0,0,42.6,119.48Z" transform="translate(942.311 2285.338)" fill="#fff"/>
  </g>
</svg>
