<svg xmlns="http://www.w3.org/2000/svg" width="93" height="93" viewBox="0 0 93 93"><defs><style>.a{fill:#ff001c;}.b{fill:#fff;}</style></defs><g transform="translate(-128 -2891)"><g transform="translate(-209 182)"><circle class="a" cx="46.5" cy="46.5" r="46.5" transform="translate(337 2709)"/></g><g transform="translate(140 2902.63)"><path class="b" d="M8,383.75a2.352,2.352,0,0,0,1.122,1.122H8Z" transform="translate(0 -324.345)"/><path class="b" d="M383.75,384.872a2.352,2.352,0,0,0,1.122-1.122v1.122Z" transform="translate(-324.664 -324.344)"/><path class="b" d="M44.52,8.37a2.409,2.409,0,0,1-.292.337,25.282,25.282,0,0,0-8.753,14.785c-.326,1.535-.438,3.115-.647,4.674-.026.2-.042.4-.063.608H25.72A20.489,20.489,0,0,1,27.274,22.1,22.154,22.154,0,0,1,42.753,8.745c.518-.136,1.041-.25,1.564-.375Z" transform="translate(-15.311)"/><path class="b" d="M190.33,301.067c1.214.688,2.417,1.36,3.607,2.056a.563.563,0,0,1,.193.408c.022.593,0,1.187.014,1.78a1.559,1.559,0,0,0,1.6,1.667,1.579,1.579,0,0,0,1.623-1.652c.018-.353,0-.708,0-1.141a30.563,30.563,0,0,0,11.148-.049c0,.44-.011.843,0,1.244a1.544,1.544,0,0,0,1.46,1.592,1.52,1.52,0,0,0,1.718-1.36c.086-.7.034-1.419.069-2.13a.631.631,0,0,1,.2-.454c1.107-.67,2.231-1.315,3.351-1.967,0,.049.016.192.016.334v10.577c0,1.028-.378,1.4-1.415,1.4H191.751c-1.037,0-1.419-.374-1.421-1.4V301.067Z" transform="translate(-157.541 -252.897)"/><path class="b" d="M219,9.35c10.509,1.543,17.547,9.885,18.218,20.267h-8.681c-.212-1.241-.389-2.481-.638-3.708a30.006,30.006,0,0,0-5.925-13.433C221.057,11.358,219.976,10.372,219,9.35Z" transform="translate(-182.313 -0.847)"/><path class="b" d="M25.78,182.72h9.053a29.278,29.278,0,0,0,2.733,11.211,27.216,27.216,0,0,0,7.086,9.128A22.508,22.508,0,0,1,25.78,182.72Z" transform="translate(-15.363 -150.646)"/><path class="b" d="M201.67,27.24a17.292,17.292,0,0,1,4.062,4.417,29.238,29.238,0,0,1,4.046,10.56c.182.929.321,1.865.489,2.855h-8.6Z" transform="translate(-167.339 -16.304)"/><path class="b" d="M124.632,46.7H116.35a25.9,25.9,0,0,1,2.247-9.754,21.323,21.323,0,0,1,6.035-7.837Z" transform="translate(-93.619 -17.92)"/><path class="b" d="M218.134,266.82a5.724,5.724,0,0,1-1.621,2.09,12.442,12.442,0,0,1-5.657,2.5,21.481,21.481,0,0,1-11.819-.744,8.829,8.829,0,0,1-3.971-2.642c-.286-.351-.513-.749-.816-1.2Z" transform="translate(-160.928 -223.312)"/><path class="b" d="M124.59,190.959a1.732,1.732,0,0,0-1.474,1.977v5.89a23.966,23.966,0,0,1-6.826-15.965h8.3Z" transform="translate(-93.567 -150.767)"/><path class="b" d="M205.61,190.91h-3.95V182.8h8.9c.042.8.083,1.566.126,2.406-.895,0-1.739.041-2.583-.008-1.806-.109-2.552.515-2.447,2.435.06,1.047,0,2.1,0,3.15C205.665,190.813,205.641,190.849,205.61,190.91Z" transform="translate(-167.331 -150.715)"/><path class="b" d="M297.568,190.92h-1.2v-1.631c0-.816.009-1.631,0-2.438a1.579,1.579,0,0,0-1.592-1.632c-.964-.026-1.929-.009-2.895-.011h-.6c-.038-.816-.075-1.583-.114-2.4H299.6A26.162,26.162,0,0,1,297.568,190.92Z" transform="translate(-244.662 -150.724)"/><path class="b" d="M255.108,226.688c0-.695-.023-1.369.008-2.039.019-.421.377-.417.68-.417h5.438c.086,0,.2-.029.249.015.17.148.436.311.451.488.054.636.022,1.279.022,1.955Z" transform="translate(-213.505 -186.506)"/></g></g></svg>